<svg width="86" height="110" viewBox="0 0 86 110" fill="none" xmlns="http://www.w3.org/2000/svg">
<path d="M21.9684 42.6692C21.4329 42.1342 20.9962 41.4057 20.5896 40.768C20.4577 40.5646 20.3294 40.3588 20.2048 40.1507C20.0803 39.9426 19.9595 39.7323 19.8425 39.5198C19.7254 39.3074 19.6123 39.093 19.503 38.8764C19.3937 38.66 19.2883 38.4417 19.1868 38.2214C19.0854 38.0012 18.9879 37.7792 18.8944 37.5555C18.8009 37.3317 18.7114 37.1064 18.626 36.8795C18.5406 36.6527 18.4593 36.4243 18.3822 36.1945C18.305 35.9646 18.2319 35.7334 18.163 35.5009C18.0941 35.2684 18.0294 35.0348 17.9689 34.8001C17.9084 34.5654 17.8522 34.3296 17.8001 34.0927C17.7481 33.856 17.7003 33.6184 17.6569 33.38C17.6134 33.1413 17.5742 32.9021 17.5393 32.6623C17.5044 32.4224 17.4738 32.182 17.4475 31.941C17.4213 31.6999 17.3993 31.4585 17.3817 31.2168C17.3641 30.975 17.3509 30.7331 17.342 30.4909C17.3331 30.2485 17.3286 30.0061 17.3284 29.7638C17.3331 24.155 19.7304 18.9025 23.7022 14.9647C23.9592 14.7099 24.2327 14.477 24.514 14.2493C24.1867 13.5896 23.8822 12.939 23.6885 12.2264C23.3216 10.8757 23.2597 8.67508 23.7407 7.343C23.7752 7.24719 23.8119 7.18743 23.8869 7.11941C23.928 7.12295 23.9719 7.11409 24.01 7.13008C24.0983 7.16726 25.0862 8.03604 25.479 8.24108C25.8016 8.40742 26.1319 8.55663 26.4699 8.68873C26.808 8.82082 27.152 8.93508 27.5019 9.03151C27.8519 9.12795 28.2059 9.20605 28.564 9.26579C28.9221 9.32554 29.2823 9.36661 29.6446 9.38902C30.3998 9.43612 31.2159 9.44332 31.9617 9.30381C32.6882 9.16787 33.3612 8.84193 34.0569 8.60227C34.9362 8.29941 35.8611 8.05054 36.7659 7.83359C39.1042 7.27296 41.4616 7.07473 43.8619 7.08167C46.1437 7.08826 48.2892 7.30662 50.5123 7.83216C51.3462 8.03017 52.1693 8.26539 52.9819 8.53782C53.6278 8.75871 54.2719 9.03702 54.9371 9.19248C57.4612 9.78246 60.864 9.19832 62.8745 7.52512C63.0815 7.35287 63.2814 7.16864 63.4767 6.98309C64.1114 9.63702 64.1327 11.7659 62.82 14.2373C63.3973 14.6406 63.8905 15.2326 64.3687 15.7483C67.0365 18.6255 68.9997 22.3006 69.6851 26.1821C69.7143 26.3477 69.7414 26.5137 69.7664 26.68C69.7915 26.8464 69.8145 27.013 69.8355 27.1798C69.8565 27.3468 69.8754 27.514 69.8922 27.6813C69.9089 27.8486 69.9236 28.0161 69.9363 28.1839C69.9489 28.3515 69.9594 28.5194 69.9681 28.6875C69.9765 28.8554 69.9829 29.0234 69.9871 29.1915C69.9915 29.3598 69.9937 29.5279 69.9939 29.696C69.9941 29.8642 69.9921 30.0325 69.988 30.2007C69.984 30.3688 69.9778 30.5368 69.9697 30.7048C69.9616 30.8729 69.9513 31.0408 69.9389 31.2086C69.9265 31.3762 69.9121 31.5437 69.8957 31.7112C69.8791 31.8785 69.8605 32.0456 69.84 32.2126C69.8193 32.3795 69.7966 32.5461 69.7719 32.7124C69.7469 32.8788 69.7201 33.0449 69.6913 33.2106C69.6623 33.3764 69.6313 33.5417 69.5984 33.7067C69.5654 33.8716 69.5304 34.0361 69.4934 34.2001C69.4563 34.3642 69.4171 34.5278 69.3759 34.691C69.3349 34.8541 69.2918 35.0167 69.2467 35.1786C69.2014 35.3406 69.1542 35.5021 69.105 35.663C69.056 35.8239 69.0048 35.9841 68.9516 36.1438C68.8985 36.3034 68.8434 36.4624 68.7864 36.6206C68.7294 36.7788 68.6703 36.9364 68.6092 37.0932C68.5483 37.2499 68.4854 37.4059 68.4205 37.5611C68.3557 37.7164 68.2889 37.8708 68.2203 38.0243C68.1516 38.178 68.081 38.3308 68.0086 38.4826C67.9361 38.6345 67.8618 38.7854 67.7856 38.9353C67.7093 39.0854 67.6312 39.2345 67.5514 39.3826C67.4715 39.5306 67.3898 39.6777 67.3063 39.8237C67.2226 39.9698 67.1373 40.1148 67.0502 40.2588C66.9631 40.4028 66.8742 40.5457 66.7835 40.6873C66.6928 40.8291 66.6003 40.9698 66.5062 41.1093C66.4121 41.2487 66.3162 41.387 66.2186 41.5242C64.8391 43.4915 63.0173 45.4244 61.0405 46.7999C61.0295 46.8107 61.0184 46.8215 61.0071 46.8321C60.4131 47.3802 59.5501 47.7949 58.8334 48.1603C57.99 48.5858 57.1335 48.9831 56.2637 49.3525C55.3942 49.7216 54.5134 50.062 53.6215 50.3737C52.7294 50.6853 51.8281 50.9674 50.9176 51.2199C50.007 51.4724 49.0892 51.6948 48.164 51.8872C47.4511 52.0387 46.7363 52.1885 46.0135 52.2861C45.5149 52.3537 44.9592 52.353 44.4763 52.4805C45.4604 52.6194 46.4985 52.5317 47.4882 52.492C51.7133 52.3234 56.0856 51.8473 60.0463 50.2763C60.7113 50.0127 61.4938 49.7122 62.0645 49.276C62.124 49.2305 62.1807 49.1818 62.2346 49.1299C62.6456 50.1504 62.9696 51.2114 63.3935 52.223C62.7264 52.5284 62.1179 53.2175 61.6199 53.748C59.4206 56.0908 57.5986 58.7806 56.4783 61.8015C54.5449 67.0141 54.8638 73.0165 57.1971 78.0615C57.3282 78.3451 57.4687 78.6596 57.6548 78.9096C57.3209 79.2122 55.3558 80.8817 55.2818 81.1314C54.8852 81.1769 54.5733 81.2457 54.2244 81.4436C54.0623 81.6972 53.9514 81.9064 53.8713 82.197C53.5874 82.1981 53.2265 82.2389 52.9591 82.1487C52.8242 81.7452 52.6618 81.4513 52.2553 81.2583C52.2167 81.2402 52.1772 81.2239 52.1369 81.2095C52.0967 81.1953 52.0558 81.1831 52.0143 81.173C51.9727 81.1628 51.9308 81.1547 51.8885 81.1486C51.8463 81.1426 51.8037 81.1388 51.761 81.1371C51.7184 81.1353 51.6757 81.1357 51.6329 81.1382C51.5903 81.1407 51.5478 81.1453 51.5055 81.1521C51.4634 81.1588 51.4217 81.1676 51.3803 81.1786C51.339 81.1895 51.2983 81.2025 51.2584 81.2175C50.9221 81.3444 50.6629 81.5822 50.5238 81.9136C50.4844 82.0077 50.4555 82.1074 50.4263 82.2049C50.1314 82.1763 49.8328 82.1728 49.5367 82.162C49.4195 81.7659 49.2592 81.4734 48.8715 81.2757C48.8316 81.2557 48.7907 81.2378 48.7488 81.222C48.707 81.2062 48.6646 81.1926 48.6215 81.1812C48.5783 81.1696 48.5345 81.1604 48.4904 81.1535C48.4464 81.1464 48.402 81.1417 48.3574 81.1392C48.3127 81.1367 48.2681 81.1365 48.2234 81.1387C48.1788 81.1409 48.1344 81.1453 48.0902 81.1518C48.046 81.1586 48.0023 81.1675 47.9591 81.1786C47.9159 81.1897 47.8733 81.203 47.8313 81.2185C47.5411 81.3249 47.2793 81.5306 47.151 81.8161C47.0979 81.9347 47.0667 82.0654 47.0354 82.1913C46.2612 82.0888 45.3948 82.1552 44.6103 82.1533C43.1711 82.1503 41.7286 82.1287 40.2898 82.1627C40.2642 82.0553 40.2353 81.9498 40.1879 81.8496C40.1694 81.8105 40.1489 81.7724 40.1265 81.7354C40.104 81.6985 40.0795 81.6628 40.0532 81.6282C40.0271 81.5938 39.9991 81.5609 39.9693 81.5295C39.9396 81.498 39.9082 81.4682 39.8751 81.4401C39.8422 81.4119 39.8079 81.3857 39.7722 81.3613C39.7365 81.3367 39.6996 81.3141 39.6615 81.2935C39.6233 81.2729 39.5841 81.2543 39.544 81.2379C39.5041 81.2215 39.4633 81.2072 39.4216 81.195C39.3788 81.1822 39.3356 81.1716 39.2919 81.1633C39.248 81.1549 39.2039 81.1486 39.1596 81.1446C39.1153 81.1407 39.0708 81.1389 39.0261 81.1392C38.9815 81.1396 38.9371 81.1424 38.8929 81.1474C38.8486 81.1522 38.8046 81.1593 38.7609 81.1685C38.7173 81.1779 38.6743 81.1894 38.6319 81.203C38.5894 81.2166 38.5477 81.2322 38.5069 81.2499C38.466 81.2677 38.4261 81.2875 38.3873 81.3092C38.0148 81.517 37.8962 81.7968 37.7754 82.1794C37.4786 82.1395 37.1649 82.144 36.8649 82.1315C36.7222 81.7321 36.5679 81.4518 36.1616 81.2611C35.8453 81.1127 35.4628 81.0941 35.1362 81.2222C34.8084 81.3505 34.561 81.5836 34.4376 81.9141C34.4066 81.9971 34.3838 82.0827 34.3622 82.1683C34.0607 82.1435 33.7531 82.1442 33.4505 82.1336C33.3861 81.9664 33.3241 81.7858 33.2186 81.6392C32.9516 81.2686 32.5656 81.2105 32.1471 81.1429C31.4159 80.3743 30.5267 79.6698 29.7351 78.957C29.7753 78.4527 30.2048 77.743 30.393 77.2556C30.5857 76.757 30.7506 76.2459 30.9156 75.7374C32.2688 71.5661 32.4815 67.0756 31.1724 62.8649C30.0955 59.4007 28.1168 56.3069 25.6193 53.6889C25.1108 53.1558 24.5551 52.5054 23.8956 52.1595C24.3648 50.7074 25.4468 48.0235 26.2838 46.803C25.3897 46.2671 24.616 45.5646 23.8737 44.8389C23.5915 44.5631 23.3136 44.1799 22.9832 43.9721C22.9457 42.3549 22.9797 40.7295 22.9792 39.1117L22.9858 31.2456L23.7386 31.2527C23.9604 32.2232 24.479 33.2317 25.0293 34.0582C26.4539 36.1968 28.833 37.8639 31.3674 38.3672C31.5379 38.4027 31.7091 38.4339 31.8811 38.4608C32.0531 38.4877 32.2256 38.5103 32.3987 38.5286C32.5718 38.5469 32.7453 38.5608 32.9192 38.5704C33.0929 38.58 33.2669 38.5854 33.4411 38.5863C33.6151 38.5872 33.7891 38.5839 33.963 38.5762C34.137 38.5684 34.3106 38.5563 34.4839 38.5399C34.6571 38.5236 34.8299 38.503 35.0022 38.4779C35.1746 38.4529 35.3461 38.4236 35.5168 38.39C35.6877 38.3564 35.8576 38.3185 36.0265 38.2765C36.1954 38.2344 36.3631 38.1882 36.5298 38.1379C36.6965 38.0875 36.8617 38.033 37.0256 37.9744C37.1894 37.9156 37.3517 37.8528 37.5125 37.786C37.6732 37.7194 37.8321 37.6488 37.9892 37.574C38.1465 37.4993 38.3017 37.4207 38.4549 37.3383C38.6083 37.2559 38.7594 37.1697 38.9082 37.0798C39.0572 36.9898 39.2038 36.8961 39.3481 36.7989C41.5747 35.3105 43.1259 32.8869 43.6431 30.273C44.157 27.6752 43.5444 24.8713 42.0705 22.6776C41.9766 22.5386 41.8794 22.4019 41.7789 22.2676C41.6784 22.1333 41.5747 22.0015 41.4677 21.8722C41.3609 21.743 41.2509 21.6163 41.1378 21.4924C41.0247 21.3685 40.9087 21.2473 40.7896 21.129C40.6707 21.0107 40.5489 20.8953 40.4242 20.783C40.2997 20.6705 40.1724 20.5612 40.0424 20.455C39.9125 20.3488 39.7802 20.2457 39.6453 20.1459C39.5103 20.0461 39.373 19.9496 39.2334 19.8565C39.0937 19.7633 38.9518 19.6736 38.8079 19.5874C38.6639 19.5011 38.5179 19.4184 38.3699 19.3392C38.2218 19.26 38.072 19.1844 37.9204 19.1125C37.7686 19.0406 37.6151 18.9724 37.4601 18.9079C37.3051 18.8434 37.1486 18.7827 36.9906 18.7259C36.8327 18.669 36.6734 18.616 36.5129 18.5668C36.3523 18.5176 36.1907 18.4724 36.0279 18.4311C35.8651 18.3897 35.7014 18.3524 35.5368 18.319C35.37 18.287 35.2024 18.2592 35.0342 18.2355C34.866 18.2118 34.6972 18.1922 34.5281 18.1768C34.3589 18.1614 34.1894 18.1502 34.0196 18.1432C33.8498 18.1361 33.68 18.1333 33.5102 18.1346C33.3402 18.1359 33.1704 18.1414 33.0007 18.1511C32.8311 18.1608 32.6618 18.1747 32.493 18.1927C32.3239 18.2107 32.1555 18.2329 31.9878 18.2592C31.8198 18.2856 31.6527 18.316 31.4863 18.3506C31.3201 18.3852 31.1548 18.4238 30.9903 18.4665C30.8258 18.5092 30.6625 18.556 30.5004 18.6067C30.3383 18.6575 30.1775 18.7122 30.0182 18.7709C29.8588 18.8296 29.7009 18.8922 29.5445 18.9586C29.3882 19.0251 29.2337 19.0953 29.0809 19.1694C28.928 19.2435 28.7771 19.3213 28.6281 19.4028C28.4792 19.4843 28.3322 19.5695 28.1873 19.6582C28.0426 19.747 27.9001 19.8392 27.7599 19.935C25.9621 21.1544 24.1681 23.3055 23.7522 25.4811C22.7797 25.4768 21.8435 25.432 20.9803 25.9586C20.9012 26.0058 20.8247 26.0569 20.7507 26.1117C20.6768 26.1666 20.6057 26.225 20.5376 26.2869C20.4695 26.3489 20.4046 26.4141 20.343 26.4826C20.2813 26.551 20.2233 26.6223 20.1688 26.6965C20.1144 26.7707 20.0637 26.8475 20.0169 26.9268C19.9701 27.0059 19.9274 27.0872 19.8887 27.1707C19.8501 27.2543 19.8157 27.3396 19.7855 27.4266C19.7554 27.5135 19.7297 27.6017 19.7084 27.6911C19.6864 27.7807 19.6689 27.8713 19.656 27.9627C19.6432 28.0541 19.6349 28.1458 19.6313 28.2381C19.6276 28.3303 19.6287 28.4225 19.6343 28.5146C19.64 28.6069 19.6503 28.6985 19.6651 28.7895C19.68 28.8807 19.6995 28.9708 19.7234 29.0599C19.7474 29.1491 19.7758 29.2368 19.8086 29.3231C19.8414 29.4094 19.8785 29.4938 19.9198 29.5764C19.9611 29.6589 20.0065 29.7392 20.0559 29.8173C20.4956 30.5223 21.1807 30.9911 21.9859 31.1778C21.9436 35.0023 22.0911 38.848 21.9684 42.6692ZM45.9663 36.8324C45.0783 36.1895 44.2047 35.3555 43.6615 34.3925C42.7862 35.7122 41.6945 36.6513 40.3112 37.4148L42.3087 41.0914C42.6967 41.7948 43.0764 42.6094 43.5905 43.2258L43.6424 43.2891C43.653 43.3018 43.6638 43.314 43.6744 43.3264C44.1998 42.6099 44.5983 41.7704 45.0262 40.9918C45.377 40.3533 45.772 39.7123 46.0831 39.0551C46.2758 38.9447 46.8745 37.7225 47.03 37.4406C46.6719 37.2445 46.3202 37.036 45.9663 36.8324ZM53.0923 18.9769C52.9413 18.9877 52.7906 19.0023 52.6402 19.0206C52.49 19.0388 52.3403 19.0608 52.191 19.0864C52.0417 19.112 51.8932 19.1412 51.7454 19.1741C51.5976 19.207 51.4506 19.2435 51.3046 19.2835C51.1586 19.3236 51.0137 19.3673 50.8699 19.4145C50.7261 19.4616 50.5835 19.5123 50.4421 19.5665C50.3008 19.6207 50.1609 19.6783 50.0224 19.7393C49.8838 19.8004 49.7468 19.8648 49.6114 19.9326C49.4761 20.0003 49.3425 20.0713 49.2106 20.1456C49.0788 20.2199 48.9489 20.2974 48.8207 20.3781C48.6928 20.4588 48.5668 20.5426 48.4429 20.6294C48.319 20.7163 48.1973 20.8061 48.0778 20.8989C47.9582 20.9917 47.8411 21.0874 47.7262 21.186C47.6114 21.2846 47.4991 21.3859 47.3893 21.49C47.2795 21.594 47.1723 21.7007 47.0679 21.81C46.9632 21.9194 46.8614 22.0312 46.7624 22.1455C46.6632 22.2598 46.567 22.3765 46.4738 22.4955C46.3805 22.6146 46.2901 22.7358 46.2027 22.8593C46.1154 22.9827 46.0312 23.1082 45.9499 23.2358C45.8687 23.3634 45.7908 23.493 45.7161 23.6244C45.6412 23.7558 45.5697 23.8889 45.5015 24.0239C45.4332 24.1588 45.3683 24.2953 45.3067 24.4334C45.2452 24.5714 45.1871 24.711 45.1324 24.852C45.0777 24.9929 45.0266 25.1351 44.9789 25.2786C44.9313 25.422 44.8872 25.5666 44.8467 25.7123C44.8061 25.8579 44.7691 26.0044 44.7357 26.1518C44.7024 26.2993 44.6727 26.4474 44.6467 26.5963C44.6205 26.7452 44.5981 26.8946 44.5795 27.0445C44.5607 27.1946 44.5457 27.345 44.5344 27.4958C44.5231 27.6465 44.5155 27.7974 44.5116 27.9484C44.5078 28.0995 44.5077 28.2506 44.5111 28.4018C44.5147 28.5528 44.522 28.7037 44.533 28.8545C44.5439 29.0052 44.5586 29.1556 44.5769 29.3057C44.5954 29.4557 44.6175 29.6052 44.6432 29.7542C44.6689 29.903 44.6982 30.0513 44.7313 30.1989C44.7643 30.3463 44.801 30.4929 44.8412 30.6386C44.8815 30.7844 44.9253 30.929 44.9726 31.0725C45.0199 31.2161 45.0707 31.3584 45.1251 31.4994C45.1795 31.6404 45.2373 31.7801 45.2985 31.9185C45.3598 32.0567 45.4244 32.1933 45.4924 32.3283C45.5603 32.4634 45.6316 32.5967 45.7062 32.7284C45.7806 32.8599 45.8583 32.9895 45.9393 33.1173C46.0201 33.245 46.1041 33.3707 46.1912 33.4944C46.2783 33.6181 46.3683 33.7396 46.4614 33.8589C46.5544 33.978 46.6504 34.0949 46.7492 34.2095C46.8481 34.324 46.9497 34.436 47.054 34.5456C47.1583 34.6551 47.2652 34.7619 47.3747 34.8662C47.4844 34.9707 47.5965 35.0722 47.711 35.1709C47.8256 35.2697 47.9426 35.3657 48.0618 35.4589C48.1812 35.552 48.3027 35.642 48.4265 35.7291C48.5502 35.8162 48.676 35.9003 48.8038 35.9812C48.9317 36.0622 49.0614 36.14 49.1932 36.2146C49.3249 36.2892 49.4584 36.3605 49.5936 36.4285C49.7288 36.4965 49.8655 36.5613 50.0038 36.6227C50.1423 36.684 50.2821 36.7419 50.4233 36.7963C50.5646 36.8509 50.7071 36.9019 50.8509 36.9494C50.9946 36.997 51.1394 37.0409 51.2854 37.0813C51.4312 37.1216 51.578 37.1584 51.7257 37.1917C51.8734 37.2249 52.0219 37.2544 52.1712 37.2804C52.3204 37.3063 52.47 37.3285 52.6203 37.347C52.7706 37.3656 52.9213 37.3805 53.0723 37.3918C53.2234 37.403 53.3745 37.4105 53.5258 37.4143C53.6772 37.418 53.8286 37.4181 53.98 37.4145C54.1314 37.4109 54.2825 37.4036 54.4335 37.3925C54.5844 37.3814 54.7349 37.3667 54.8852 37.3484C55.0354 37.3299 55.1851 37.3078 55.3342 37.282C55.4832 37.2564 55.6315 37.227 55.7792 37.1938C55.927 37.1608 56.0737 37.1242 56.2196 37.0841C56.3654 37.0439 56.5102 37.0002 56.6538 36.953C56.7976 36.9056 56.9401 36.8548 57.0812 36.8005C57.2225 36.7462 57.3623 36.6885 57.5006 36.6274C57.639 36.5663 57.7757 36.5018 57.9109 36.4339C58.0461 36.3662 58.1796 36.2951 58.3113 36.2207C58.443 36.1463 58.5728 36.0687 58.7006 35.9881C58.8286 35.9074 58.9545 35.8236 59.0782 35.7366C59.202 35.6498 59.3236 35.56 59.4429 35.4671C59.5623 35.3743 59.6793 35.2786 59.794 35.1801C59.9086 35.0814 60.0208 34.9801 60.1305 34.8761C60.2401 34.772 60.3471 34.6652 60.4514 34.5559C60.5559 34.4466 60.6576 34.3348 60.7564 34.2205C60.8554 34.1062 60.9515 33.9896 61.0447 33.8706C61.1379 33.7516 61.2281 33.6304 61.3152 33.5071C61.4024 33.3835 61.4866 33.2581 61.5678 33.1306C61.6488 33.003 61.7266 32.8736 61.8013 32.7422C61.8761 32.6109 61.9475 32.4777 62.0156 32.3428C62.0838 32.208 62.1486 32.0716 62.21 31.9335C62.2714 31.7956 62.3294 31.6562 62.3841 31.5153C62.4386 31.3745 62.4897 31.2323 62.5373 31.0889C62.5849 30.9456 62.6289 30.8011 62.6693 30.6555C62.7099 30.5099 62.7468 30.3635 62.78 30.2162C62.8134 30.0689 62.8431 29.9209 62.8691 29.772C62.8951 29.6233 62.9174 29.474 62.936 29.324C62.9547 29.1742 62.9696 29.024 62.9809 28.8732C62.9922 28.7227 62.9998 28.5718 63.0037 28.4208C63.0075 28.2699 63.0076 28.1189 63.0042 27.9679C63.0006 27.8169 62.9933 27.666 62.9823 27.5155C62.9713 27.3649 62.9567 27.2146 62.9384 27.0647C62.92 26.9147 62.898 26.7653 62.8721 26.6165C62.8464 26.4676 62.8171 26.3195 62.7842 26.1723C62.7512 26.0248 62.7145 25.8783 62.6743 25.7327C62.6342 25.587 62.5905 25.4424 62.5432 25.2991C62.4958 25.1555 62.445 25.0133 62.3907 24.8724C62.3365 24.7314 62.2787 24.5918 62.2175 24.4538C62.1564 24.3155 62.0919 24.179 62.0241 24.044C61.9561 23.9091 61.8849 23.7759 61.8105 23.6444C61.7361 23.5128 61.6586 23.3832 61.5779 23.2555C61.4971 23.1278 61.4132 23.0021 61.3262 22.8785C61.2391 22.755 61.1491 22.6336 61.0562 22.5144C60.9633 22.3952 60.8676 22.2784 60.7689 22.1639C60.6702 22.0494 60.5688 21.9374 60.4646 21.8278C60.3604 21.7183 60.2536 21.6114 60.1441 21.5072C60.0346 21.4029 59.9227 21.3013 59.8083 21.2025C59.6938 21.1037 59.5769 21.0078 59.4577 20.9147C59.3387 20.8216 59.2174 20.7315 59.0938 20.6443C58.9702 20.5572 58.8444 20.4732 58.7166 20.3922C58.589 20.3112 58.4593 20.2334 58.3277 20.1588C58.1963 20.0841 58.063 20.0128 57.9278 19.9447C57.7928 19.8766 57.6562 19.8118 57.518 19.7504C57.3797 19.689 57.2401 19.631 57.0991 19.5765C56.9579 19.5219 56.8155 19.4708 56.6719 19.4232C56.5284 19.3756 56.3837 19.3316 56.2379 19.2911C56.0921 19.2506 55.9454 19.2137 55.7978 19.1804C55.6502 19.1471 55.502 19.1174 55.353 19.0913C55.2039 19.0653 55.0543 19.0429 54.9042 19.0242C54.754 19.0054 54.6034 18.9904 54.4526 18.979C54.3017 18.9677 54.1506 18.9601 53.9993 18.9561C53.8481 18.9522 53.6969 18.9519 53.5456 18.9554C53.3943 18.9588 53.2432 18.966 53.0923 18.9769Z" fill="#A569DC"/>
<path d="M21.9684 42.6692C22.0911 38.8481 21.9436 35.0023 21.9859 31.1779C21.1807 30.9912 20.4956 30.5223 20.0559 29.8173C20.0065 29.7393 19.9611 29.659 19.9198 29.5764C19.8785 29.4938 19.8414 29.4094 19.8086 29.3231C19.7758 29.2368 19.7474 29.1491 19.7234 29.0599C19.6995 28.9708 19.68 28.8807 19.6652 28.7895C19.6503 28.6985 19.64 28.6069 19.6343 28.5146C19.6287 28.4225 19.6276 28.3304 19.6313 28.2381C19.6349 28.1459 19.6432 28.0541 19.656 27.9628C19.6689 27.8713 19.6864 27.7808 19.7084 27.6912C19.7297 27.6017 19.7554 27.5135 19.7855 27.4266C19.8157 27.3397 19.8501 27.2544 19.8887 27.1707C19.9274 27.0872 19.9701 27.0059 20.0169 26.9268C20.0637 26.8475 20.1144 26.7707 20.1688 26.6965C20.2233 26.6224 20.2814 26.5511 20.343 26.4826C20.4046 26.4141 20.4695 26.3489 20.5376 26.287C20.6057 26.225 20.6768 26.1666 20.7507 26.1118C20.8247 26.0569 20.9012 26.0058 20.9803 25.9586C21.8435 25.4321 22.7797 25.4769 23.7522 25.4811C24.1681 23.3056 25.9621 21.1545 27.7599 19.935C27.9001 19.8393 28.0426 19.747 28.1873 19.6582C28.3322 19.5695 28.4792 19.4843 28.6281 19.4028C28.7771 19.3213 28.928 19.2435 29.0809 19.1694C29.2337 19.0954 29.3882 19.0251 29.5445 18.9586C29.7009 18.8922 29.8588 18.8296 30.0182 18.7709C30.1775 18.7122 30.3383 18.6575 30.5004 18.6068C30.6625 18.556 30.8258 18.5092 30.9903 18.4665C31.1548 18.4238 31.3201 18.3852 31.4863 18.3506C31.6527 18.316 31.8199 18.2856 31.9878 18.2593C32.1555 18.2329 32.3239 18.2107 32.493 18.1927C32.6618 18.1747 32.8311 18.1608 33.0007 18.1511C33.1704 18.1414 33.3402 18.1359 33.5102 18.1346C33.68 18.1333 33.8498 18.1362 34.0196 18.1432C34.1894 18.1502 34.3589 18.1615 34.5281 18.1768C34.6972 18.1922 34.866 18.2118 35.0342 18.2355C35.2024 18.2592 35.37 18.2871 35.5368 18.319C35.7014 18.3524 35.8651 18.3898 36.0279 18.4311C36.1907 18.4724 36.3523 18.5176 36.5129 18.5668C36.6734 18.616 36.8327 18.669 36.9906 18.7259C37.1486 18.7828 37.3051 18.8434 37.4601 18.9079C37.6151 18.9724 37.7686 19.0406 37.9204 19.1125C38.072 19.1844 38.2218 19.26 38.3699 19.3392C38.5179 19.4184 38.6639 19.5011 38.8079 19.5874C38.9518 19.6737 39.0937 19.7634 39.2334 19.8565C39.373 19.9497 39.5103 20.0461 39.6453 20.146C39.7802 20.2458 39.9125 20.3488 40.0424 20.455C40.1724 20.5612 40.2997 20.6706 40.4242 20.783C40.5489 20.8954 40.6707 21.0107 40.7896 21.129C40.9087 21.2474 41.0247 21.3685 41.1378 21.4924C41.2509 21.6164 41.3609 21.743 41.4678 21.8723C41.5747 22.0015 41.6784 22.1333 41.7789 22.2676C41.8794 22.4019 41.9766 22.5386 42.0705 22.6776C43.5444 24.8713 44.157 27.6752 43.6431 30.273C43.126 32.887 41.5747 35.3105 39.3481 36.7989C39.2038 36.8961 39.0572 36.9898 38.9082 37.0799C38.7594 37.1698 38.6083 37.2559 38.4549 37.3383C38.3017 37.4207 38.1465 37.4993 37.9892 37.574C37.8321 37.6488 37.6732 37.7195 37.5125 37.7863C37.3517 37.8529 37.1894 37.9156 37.0256 37.9744C36.8617 38.033 36.6965 38.0875 36.5298 38.1379C36.3631 38.1884 36.1954 38.2346 36.0265 38.2765C35.8576 38.3186 35.6877 38.3564 35.5168 38.39C35.3461 38.4236 35.1746 38.4529 35.0022 38.478C34.8299 38.503 34.6571 38.5236 34.4839 38.5399C34.3106 38.5563 34.137 38.5684 33.963 38.5762C33.7891 38.5839 33.6151 38.5873 33.4411 38.5863C33.2669 38.5854 33.0929 38.5801 32.9192 38.5704C32.7453 38.5608 32.5718 38.5469 32.3987 38.5286C32.2256 38.5103 32.0531 38.4877 31.8811 38.4608C31.7091 38.4339 31.5379 38.4028 31.3675 38.3673C28.833 37.8639 26.4539 36.1968 25.0293 34.0583C24.479 33.2317 23.9604 32.2232 23.7386 31.2527L22.9858 31.2456L22.9792 39.1117C22.9797 40.7296 22.9457 42.3549 22.9832 43.9721C23.0235 44.4721 23.1426 45.5334 22.8456 45.9519C22.7783 46.0466 22.6757 46.1109 22.5591 46.1226C22.4199 46.1362 22.2554 46.1029 22.1487 46.0079C22.0493 45.9193 21.9998 45.7774 21.9815 45.6491C21.8773 44.9185 21.9943 43.499 21.9684 42.6692ZM32.7909 20.1889C32.657 20.2014 32.5234 20.2173 32.39 20.2364C32.2569 20.2555 32.1242 20.2778 31.992 20.3034C31.86 20.329 31.7286 20.3578 31.598 20.3899C31.4672 20.4219 31.3373 20.4571 31.2084 20.4956C31.0795 20.534 30.9515 20.5755 30.8247 20.6202C30.6978 20.6649 30.572 20.7126 30.4473 20.7635C30.3228 20.8143 30.1996 20.8682 30.0777 20.9251C29.9558 20.982 29.8354 21.0418 29.7163 21.1046C29.5974 21.1674 29.4801 21.2331 29.3643 21.3016C29.2485 21.3702 29.1345 21.4415 29.0222 21.5156C28.91 21.5898 28.7997 21.6666 28.6913 21.7462C28.5828 21.8257 28.4763 21.9079 28.372 21.9926C28.2675 22.0774 28.1652 22.1647 28.0651 22.2544C27.965 22.3442 27.8672 22.4364 27.7717 22.5309C27.6761 22.6255 27.5829 22.7224 27.492 22.8215C27.4013 22.9206 27.3131 23.022 27.2272 23.1254C27.1414 23.2289 27.0581 23.3344 26.9775 23.442C26.8968 23.5495 26.8188 23.659 26.7437 23.7703C26.6683 23.8817 26.5959 23.9948 26.5263 24.1097C26.4566 24.2246 26.3898 24.3412 26.3259 24.4594C26.2618 24.5776 26.2008 24.6973 26.1428 24.8185C26.0847 24.9397 26.0297 25.0623 25.9776 25.1863C25.9256 25.3101 25.8767 25.4352 25.8308 25.5615C25.7849 25.6877 25.7421 25.815 25.7025 25.9434C25.663 26.0717 25.6266 26.201 25.5932 26.3313C25.56 26.4614 25.53 26.5923 25.5032 26.7239C25.4765 26.8556 25.4529 26.9879 25.4325 27.1208C25.4123 27.2535 25.3953 27.3867 25.3815 27.5204C25.3677 27.6539 25.3573 27.7878 25.3503 27.922C25.3431 28.0561 25.3391 28.1903 25.3385 28.3247C25.3381 28.459 25.3409 28.5932 25.347 28.7274C25.3529 28.8617 25.3623 28.9957 25.3749 29.1294C25.3876 29.2631 25.4035 29.3964 25.4226 29.5295C25.4419 29.6624 25.4644 29.7948 25.4901 29.9266C25.5158 30.0584 25.5447 30.1896 25.577 30.3201C25.6091 30.4505 25.6445 30.5801 25.683 30.7088C25.7217 30.8375 25.7634 30.9651 25.8082 31.0918C25.853 31.2184 25.901 31.3439 25.952 31.4682C26.0029 31.5925 26.057 31.7155 26.1142 31.8372C26.1712 31.9588 26.2312 32.079 26.2942 32.1976C26.3571 32.3165 26.423 32.4336 26.4918 32.549C26.5604 32.6645 26.6319 32.7783 26.7063 32.8902C26.7805 33.0022 26.8576 33.1123 26.9375 33.2205C27.0172 33.3287 27.0996 33.4349 27.1845 33.539C27.2695 33.6431 27.357 33.7451 27.4469 33.8451C27.537 33.945 27.6294 34.0426 27.7242 34.138C27.819 34.2334 27.916 34.3263 28.0153 34.4169C28.1148 34.5074 28.2164 34.5955 28.3201 34.6812C28.4238 34.7667 28.5295 34.8498 28.6373 34.9303C28.7451 35.0107 28.8547 35.0884 28.9663 35.1634C29.078 35.2385 29.1914 35.3107 29.3065 35.3801C29.4216 35.4497 29.5385 35.5163 29.6571 35.58C29.7755 35.6438 29.8954 35.7046 30.0168 35.7624C30.1382 35.8205 30.261 35.8753 30.3853 35.9271C30.5093 35.979 30.6346 36.0278 30.7612 36.0734C30.8878 36.1193 31.0154 36.1619 31.144 36.2013C31.2726 36.2407 31.4021 36.2769 31.5326 36.3101C31.663 36.3432 31.7941 36.3732 31.926 36.3999C32.0579 36.4265 32.1904 36.4499 32.3236 36.4701C32.4565 36.4902 32.59 36.5072 32.7239 36.521C32.8577 36.5346 32.9918 36.5449 33.1262 36.5519C33.2606 36.5589 33.3951 36.5627 33.5297 36.5632C33.6642 36.5636 33.7988 36.5608 33.9334 36.5547C34.0678 36.5486 34.2019 36.5392 34.3359 36.5266C34.4698 36.5139 34.6033 36.498 34.7363 36.4787C34.8694 36.4595 35.002 36.437 35.1341 36.4112C35.266 36.3855 35.3972 36.3566 35.5279 36.3244C35.6584 36.2923 35.7881 36.257 35.917 36.2184C36.0458 36.1799 36.1735 36.1383 36.3002 36.0936C36.4271 36.0487 36.5527 36.0009 36.6771 35.9501C36.8015 35.8991 36.9246 35.8452 37.0465 35.7882C37.1682 35.7313 37.2885 35.6714 37.4074 35.6086C37.5262 35.5457 37.6433 35.48 37.7589 35.4113C37.8745 35.3427 37.9884 35.2713 38.1006 35.1972C38.2126 35.1231 38.3228 35.0462 38.4312 34.9666C38.5394 34.8871 38.6457 34.8049 38.7501 34.7201C38.8544 34.6354 38.9565 34.5481 39.0565 34.4582C39.1564 34.3684 39.2541 34.2763 39.3495 34.1819C39.445 34.0873 39.5382 33.9904 39.6289 33.8913C39.7196 33.7921 39.8077 33.6908 39.8934 33.5873C39.9791 33.4839 40.0622 33.3785 40.1427 33.2709C40.2233 33.1635 40.3011 33.0541 40.3763 32.9428C40.4513 32.8315 40.5236 32.7183 40.5932 32.6034C40.6629 32.4885 40.7296 32.372 40.7934 32.2539C40.8573 32.1357 40.9182 32.016 40.9762 31.8949C41.0341 31.7738 41.0891 31.6514 41.1411 31.5276C41.193 31.4037 41.2419 31.2787 41.2878 31.1525C41.3335 31.0263 41.3761 30.8991 41.4156 30.7707C41.4552 30.6425 41.4916 30.5133 41.5248 30.3832C41.5581 30.2531 41.588 30.1223 41.6146 29.9906C41.6414 29.8591 41.665 29.727 41.6853 29.5942C41.7055 29.4616 41.7225 29.3286 41.7361 29.195C41.7499 29.0615 41.7604 28.9277 41.7676 28.7935C41.7746 28.6595 41.7785 28.5253 41.7791 28.391C41.7796 28.2569 41.7767 28.1227 41.7706 27.9886C41.7647 27.8546 41.7554 27.7207 41.7427 27.587C41.73 27.4533 41.7141 27.3201 41.695 27.1874C41.6757 27.0545 41.6532 26.9221 41.6275 26.7903C41.6018 26.6586 41.5729 26.5276 41.5408 26.3972C41.5087 26.2668 41.4734 26.1373 41.4349 26.0088C41.3963 25.8801 41.3547 25.7525 41.3099 25.626C41.265 25.4994 41.2172 25.374 41.1663 25.2498C41.1154 25.1255 41.0614 25.0026 41.0044 24.8811C40.9474 24.7595 40.8874 24.6393 40.8246 24.5206C40.7617 24.402 40.6959 24.2849 40.6273 24.1695C40.5586 24.0541 40.4872 23.9405 40.413 23.8285C40.3387 23.7165 40.2618 23.6065 40.1822 23.4985C40.1025 23.3903 40.0202 23.2841 39.9353 23.18C39.8505 23.0759 39.7632 22.9739 39.6733 22.874C39.5833 22.7742 39.491 22.6766 39.3962 22.5813C39.3016 22.4859 39.2047 22.393 39.1053 22.3024C39.0062 22.2118 38.9048 22.1238 38.8013 22.0381C38.6976 21.9525 38.5919 21.8695 38.4843 21.7891C38.3767 21.7087 38.2671 21.6309 38.1556 21.5558C38.044 21.4808 37.9308 21.4085 37.8158 21.339C37.7007 21.2695 37.584 21.2028 37.4657 21.139C37.3474 21.0752 37.2276 21.0143 37.1062 20.9564C36.9849 20.8985 36.8623 20.8436 36.7382 20.7916C36.6143 20.7397 36.4891 20.6909 36.3627 20.6451C36.2363 20.5993 36.1088 20.5566 35.9802 20.5171C35.8517 20.4775 35.7224 20.4412 35.592 20.408C35.4617 20.3748 35.3307 20.3448 35.1989 20.318C35.0672 20.2912 34.9348 20.2677 34.8018 20.2474C34.6688 20.2271 34.5354 20.21 34.4017 20.1963C34.268 20.1825 34.134 20.172 33.9996 20.1648C33.8654 20.1576 33.731 20.1537 33.5966 20.1531C33.4621 20.1525 33.3276 20.1552 33.1932 20.1611C33.0589 20.1671 32.9248 20.1763 32.7909 20.1889ZM22.2055 27.5687C21.9599 27.7317 21.7476 27.8969 21.6799 28.2032C21.6366 28.399 21.673 28.5979 21.7858 28.764C21.9442 28.9969 22.178 29.1348 22.4535 29.1814C22.5648 29.2002 22.6776 29.204 22.7901 29.2054C22.9973 29.1995 23.1118 29.2359 23.2695 29.0848C23.419 28.5937 23.3076 28.0653 23.3241 27.5554C22.9531 27.557 22.5754 27.5434 22.2055 27.5687Z" fill="black"/>
<path d="M54.4335 37.3925C54.2825 37.4036 54.1314 37.411 53.98 37.4146C53.8286 37.4182 53.6772 37.4181 53.5258 37.4143C53.3745 37.4106 53.2233 37.4031 53.0723 37.3918C52.9213 37.3805 52.7706 37.3656 52.6203 37.347C52.47 37.3286 52.3203 37.3064 52.1712 37.2804C52.0219 37.2544 51.8734 37.2249 51.7257 37.1917C51.578 37.1584 51.4312 37.1216 51.2854 37.0813C51.1394 37.0409 50.9946 36.997 50.8509 36.9495C50.7071 36.9019 50.5646 36.8509 50.4233 36.7963C50.2821 36.7419 50.1423 36.684 50.0038 36.6227C49.8655 36.5613 49.7288 36.4966 49.5936 36.4285C49.4584 36.3605 49.3249 36.2892 49.1932 36.2146C49.0614 36.1401 48.9316 36.0623 48.8038 35.9813C48.676 35.9003 48.5502 35.8162 48.4265 35.7291C48.3027 35.642 48.1811 35.552 48.0618 35.4589C47.9426 35.3658 47.8256 35.2697 47.711 35.1709C47.5965 35.0723 47.4844 34.9707 47.3747 34.8663C47.2652 34.762 47.1583 34.6551 47.054 34.5456C46.9497 34.436 46.8481 34.324 46.7492 34.2095C46.6504 34.0949 46.5544 33.9781 46.4614 33.8589C46.3683 33.7396 46.2783 33.6181 46.1912 33.4944C46.1041 33.3707 46.0201 33.245 45.9393 33.1173C45.8583 32.9895 45.7806 32.8599 45.7062 32.7284C45.6316 32.5968 45.5603 32.4634 45.4924 32.3283C45.4244 32.1933 45.3598 32.0568 45.2985 31.9185C45.2373 31.7802 45.1795 31.6405 45.1251 31.4994C45.0707 31.3584 45.0199 31.2161 44.9726 31.0725C44.9253 30.929 44.8815 30.7844 44.8412 30.6386C44.801 30.4929 44.7643 30.3463 44.7313 30.1989C44.6982 30.0513 44.6689 29.903 44.6432 29.7542C44.6175 29.6052 44.5954 29.4557 44.5769 29.3057C44.5586 29.1556 44.5439 29.0052 44.533 28.8545C44.522 28.7038 44.5147 28.5529 44.5111 28.4018C44.5077 28.2506 44.5078 28.0995 44.5116 27.9485C44.5155 27.7973 44.5231 27.6464 44.5344 27.4958C44.5456 27.3451 44.5607 27.1946 44.5795 27.0445C44.5981 26.8946 44.6205 26.7452 44.6467 26.5963C44.6727 26.4475 44.7024 26.2993 44.7357 26.1519C44.7691 26.0044 44.8061 25.8579 44.8466 25.7123C44.8872 25.5666 44.9313 25.4221 44.9789 25.2787C45.0266 25.1351 45.0777 24.9929 45.1324 24.852C45.187 24.711 45.2452 24.5714 45.3067 24.4334C45.3683 24.2953 45.4332 24.1588 45.5015 24.0239C45.5697 23.8889 45.6412 23.7558 45.7161 23.6244C45.7908 23.493 45.8687 23.3635 45.9498 23.2359C46.0311 23.1083 46.1154 22.9827 46.2027 22.8593C46.2901 22.7358 46.3805 22.6146 46.4738 22.4955C46.567 22.3765 46.6632 22.2598 46.7624 22.1455C46.8614 22.0312 46.9632 21.9194 47.0678 21.8101C47.1723 21.7007 47.2795 21.594 47.3893 21.49C47.4991 21.3859 47.6114 21.2846 47.7262 21.186C47.8411 21.0875 47.9582 20.9918 48.0778 20.8989C48.1973 20.8061 48.319 20.7163 48.4429 20.6294C48.5668 20.5426 48.6928 20.4588 48.8207 20.3781C48.9489 20.2975 49.0788 20.22 49.2106 20.1457C49.3425 20.0714 49.4761 20.0003 49.6114 19.9326C49.7468 19.8648 49.8838 19.8004 50.0224 19.7394C50.1609 19.6783 50.3008 19.6207 50.4421 19.5665C50.5835 19.5123 50.7261 19.4617 50.8699 19.4145C51.0137 19.3673 51.1586 19.3236 51.3046 19.2836C51.4506 19.2435 51.5976 19.207 51.7454 19.1741C51.8932 19.1412 52.0417 19.112 52.191 19.0864C52.3402 19.0608 52.49 19.0388 52.6402 19.0206C52.7906 19.0023 52.9413 18.9878 53.0923 18.9769C53.2432 18.966 53.3943 18.9589 53.5456 18.9554C53.6969 18.9519 53.8481 18.9522 53.9993 18.9561C54.1506 18.9601 54.3017 18.9677 54.4526 18.9791C54.6034 18.9904 54.754 19.0055 54.9042 19.0242C55.0543 19.0429 55.2039 19.0653 55.353 19.0913C55.502 19.1174 55.6502 19.1471 55.7978 19.1804C55.9453 19.2137 56.092 19.2506 56.2379 19.2911C56.3837 19.3316 56.5284 19.3757 56.6719 19.4232C56.8155 19.4708 56.9579 19.5219 57.0991 19.5765C57.24 19.631 57.3797 19.689 57.518 19.7504C57.6562 19.8118 57.7928 19.8766 57.9278 19.9447C58.063 20.0128 58.1963 20.0842 58.3277 20.1588C58.4593 20.2334 58.5889 20.3112 58.7166 20.3922C58.8444 20.4732 58.9702 20.5572 59.0937 20.6444C59.2173 20.7315 59.3387 20.8216 59.4577 20.9147C59.5769 21.0078 59.6938 21.1037 59.8083 21.2025C59.9227 21.3013 60.0346 21.4029 60.1441 21.5072C60.2536 21.6114 60.3604 21.7183 60.4646 21.8279C60.5687 21.9374 60.6702 22.0494 60.7689 22.1639C60.8676 22.2784 60.9633 22.3952 61.0562 22.5144C61.1491 22.6336 61.2391 22.755 61.3262 22.8786C61.4132 23.0021 61.497 23.1278 61.5779 23.2555C61.6586 23.3832 61.7361 23.5128 61.8105 23.6444C61.8849 23.7759 61.9561 23.9091 62.0241 24.044C62.0919 24.179 62.1564 24.3156 62.2175 24.4538C62.2787 24.5919 62.3365 24.7314 62.3907 24.8724C62.445 25.0133 62.4958 25.1555 62.5431 25.2991C62.5905 25.4425 62.6342 25.587 62.6743 25.7327C62.7145 25.8783 62.7512 26.0248 62.7842 26.1723C62.8171 26.3196 62.8464 26.4676 62.8721 26.6165C62.8978 26.7654 62.9199 26.9148 62.9384 27.0647C62.9567 27.2147 62.9713 27.3649 62.9823 27.5155C62.9933 27.6661 63.0006 27.8169 63.0042 27.9679C63.0076 28.119 63.0075 28.2699 63.0037 28.4208C62.9998 28.5719 62.9922 28.7227 62.9809 28.8733C62.9696 29.024 62.9547 29.1742 62.936 29.324C62.9174 29.474 62.8951 29.6233 62.8691 29.772C62.843 29.9209 62.8134 30.0689 62.78 30.2162C62.7468 30.3635 62.7099 30.51 62.6693 30.6555C62.6289 30.8011 62.5849 30.9456 62.5373 31.089C62.4897 31.2324 62.4386 31.3745 62.3841 31.5154C62.3294 31.6562 62.2714 31.7956 62.21 31.9336C62.1485 32.0716 62.0838 32.2081 62.0156 32.3431C61.9475 32.4778 61.8761 32.6109 61.8013 32.7423C61.7266 32.8736 61.6488 33.0031 61.5678 33.1307C61.4866 33.2581 61.4024 33.3836 61.3152 33.5071C61.2281 33.6305 61.1379 33.7516 61.0447 33.8706C60.9515 33.9896 60.8554 34.1063 60.7564 34.2206C60.6576 34.3349 60.5559 34.4467 60.4514 34.556C60.3471 34.6653 60.2401 34.772 60.1304 34.8761C60.0208 34.9801 59.9086 35.0814 59.794 35.1801C59.6793 35.2786 59.5623 35.3743 59.4429 35.4672C59.3236 35.56 59.202 35.6499 59.0782 35.7366C58.9545 35.8236 58.8286 35.9074 58.7006 35.9881C58.5728 36.0688 58.443 36.1463 58.3113 36.2207C58.1795 36.2952 58.0461 36.3662 57.9109 36.4339C57.7757 36.5018 57.639 36.5663 57.5006 36.6274C57.3623 36.6886 57.2225 36.7463 57.0812 36.8005C56.9401 36.8548 56.7976 36.9056 56.6538 36.953C56.5101 37.0002 56.3654 37.0439 56.2196 37.0841C56.0737 37.1243 55.9269 37.1609 55.7792 37.1938C55.6317 37.227 55.4833 37.2564 55.3342 37.282C55.1851 37.3078 55.0354 37.33 54.8852 37.3484C54.7349 37.3667 54.5844 37.3814 54.4335 37.3925ZM53.0049 22.1927C52.9067 22.205 52.8088 22.2197 52.7112 22.2369C52.6136 22.254 52.5165 22.2735 52.4198 22.2954C52.3233 22.3173 52.2274 22.3415 52.132 22.3681C52.0364 22.3948 51.9417 22.4237 51.8477 22.455C51.7538 22.4862 51.6607 22.5198 51.5683 22.5556C51.476 22.5914 51.3846 22.6295 51.2941 22.6698C51.2037 22.7101 51.1143 22.7527 51.026 22.7974C50.9376 22.8421 50.8504 22.8889 50.7642 22.9379C50.6782 22.9869 50.5935 23.038 50.51 23.0911C50.4265 23.1443 50.3443 23.1994 50.2635 23.2566C50.1826 23.3138 50.1033 23.3729 50.0254 23.434C49.9474 23.4951 49.8711 23.5581 49.7963 23.6228C49.7215 23.6877 49.6483 23.7544 49.5769 23.8229C49.5053 23.8912 49.4355 23.9613 49.3675 24.0333C49.2994 24.105 49.2331 24.1784 49.1687 24.2535C49.1042 24.3287 49.0416 24.4054 48.981 24.4836C48.9204 24.5616 48.8617 24.6412 48.805 24.7223C48.7481 24.8033 48.6934 24.8857 48.6408 24.9695C48.5881 25.0532 48.5375 25.1382 48.489 25.2245C48.4406 25.3106 48.3943 25.398 48.3501 25.4865C48.3058 25.575 48.2638 25.6645 48.2241 25.755C48.1844 25.8456 48.1468 25.937 48.1114 26.0294C48.0761 26.1218 48.0431 26.2151 48.0124 26.3092C47.9817 26.4032 47.9534 26.4979 47.9274 26.5933C47.9014 26.6887 47.8777 26.7847 47.8564 26.8813C47.8353 26.9778 47.8164 27.0748 47.7998 27.1724C47.7833 27.2698 47.7692 27.3676 47.7575 27.4658C47.7459 27.564 47.7367 27.6624 47.7298 27.7611C47.7229 27.8597 47.7185 27.9585 47.7166 28.0573C47.7146 28.1563 47.715 28.2552 47.718 28.354C47.7208 28.4528 47.7262 28.5515 47.734 28.65C47.7418 28.7486 47.752 28.847 47.7645 28.945C47.7771 29.0431 47.7921 29.1408 47.8097 29.2382C47.827 29.3355 47.8469 29.4323 47.8691 29.5288C47.8912 29.6251 47.9157 29.7208 47.9427 29.8159C47.9696 29.9111 47.9988 30.0055 48.0303 30.0992C48.0619 30.193 48.0959 30.286 48.132 30.3781C48.1681 30.47 48.2064 30.5611 48.2472 30.6513C48.2877 30.7415 48.3306 30.8307 48.3757 30.9187C48.4207 31.0067 48.4678 31.0937 48.5172 31.1795C48.5665 31.2652 48.6179 31.3497 48.6713 31.433C48.7247 31.5162 48.7802 31.5981 48.8377 31.6786C48.8951 31.7591 48.9546 31.8382 49.016 31.9157C49.0774 31.9933 49.1407 32.0694 49.2059 32.1439C49.271 32.2184 49.338 32.2912 49.4068 32.3623C49.4755 32.4336 49.5459 32.5031 49.618 32.5708C49.6902 32.6385 49.764 32.7044 49.8393 32.7685C49.9149 32.8326 49.9918 32.8949 50.0701 32.9552C50.1486 33.0156 50.2285 33.074 50.31 33.1304C50.3913 33.1869 50.4739 33.2413 50.5579 33.2937C50.642 33.346 50.7273 33.3963 50.8138 33.4445C50.9003 33.4926 50.9879 33.5386 51.0767 33.5824C51.1655 33.6263 51.2554 33.668 51.3462 33.7074C51.4369 33.747 51.5286 33.7842 51.6214 33.8193C51.714 33.8541 51.8074 33.8867 51.9017 33.9171C51.996 33.9476 52.0909 33.9756 52.1865 34.0013C52.2822 34.0271 52.3785 34.0504 52.4753 34.0714C52.5721 34.0924 52.6694 34.111 52.7671 34.1272C52.8649 34.1433 52.9629 34.1571 53.0613 34.1685C53.1597 34.1799 53.2583 34.1889 53.3571 34.1955C53.456 34.202 53.5549 34.2062 53.6539 34.2079C53.7529 34.2096 53.8519 34.2089 53.9509 34.2058C54.0499 34.2027 54.1488 34.197 54.2477 34.1889C54.3464 34.1809 54.4448 34.1705 54.543 34.1577C54.6409 34.1449 54.7385 34.1297 54.8356 34.1122C54.9327 34.0945 55.0293 34.0746 55.1255 34.0524C55.2217 34.03 55.3173 34.0054 55.4122 33.9785C55.5071 33.9515 55.6013 33.9222 55.6949 33.8906C55.7884 33.859 55.8811 33.8251 55.9731 33.789C56.0649 33.7529 56.1557 33.7146 56.2456 33.6741C56.3357 33.6334 56.4247 33.5907 56.5126 33.5458C56.6005 33.5009 56.6872 33.4539 56.7727 33.4046C56.8582 33.3555 56.9425 33.3043 57.0255 33.251C57.1087 33.1977 57.1904 33.1424 57.2706 33.0852C57.351 33.0278 57.4298 32.9685 57.5072 32.9074C57.5848 32.8462 57.6606 32.7833 57.7349 32.7186C57.8093 32.6537 57.882 32.587 57.953 32.5185C58.0241 32.4502 58.0935 32.3801 58.1611 32.3084C58.2287 32.2364 58.2945 32.1629 58.3585 32.0879C58.4226 32.013 58.4847 31.9364 58.5449 31.8583C58.6052 31.7802 58.6635 31.7008 58.7199 31.62C58.7761 31.539 58.8304 31.4567 58.8827 31.3732C58.9351 31.2896 58.9853 31.2048 59.0336 31.1188C59.0817 31.0328 59.1277 30.9456 59.1715 30.8572C59.2154 30.7689 59.2571 30.6796 59.2965 30.5894C59.336 30.499 59.3733 30.4078 59.4084 30.3157C59.4433 30.2236 59.476 30.1306 59.5064 30.0368C59.5369 29.943 59.565 29.8486 59.5907 29.7535C59.6166 29.6584 59.6401 29.5627 59.6612 29.4664C59.6824 29.3701 59.7011 29.2734 59.7174 29.1763C59.7337 29.079 59.7476 28.9815 59.7592 28.8836C59.7708 28.7857 59.7799 28.6877 59.7867 28.5895C59.7934 28.4911 59.7977 28.3927 59.7996 28.2942C59.8016 28.1957 59.8012 28.0972 59.7982 27.9986C59.7952 27.9001 59.7899 27.8017 59.7822 27.7034C59.7744 27.6052 59.7642 27.5072 59.7517 27.4095C59.7391 27.3118 59.7242 27.2143 59.7068 27.1172C59.6894 27.0203 59.6697 26.9238 59.6476 26.8278C59.6255 26.7317 59.6011 26.6362 59.5743 26.5414C59.5475 26.4465 59.5184 26.3524 59.4871 26.2591C59.4558 26.1655 59.4221 26.0729 59.3861 25.9811C59.3502 25.8893 59.312 25.7985 59.2716 25.7086C59.2312 25.6187 59.1886 25.5298 59.1438 25.4419C59.099 25.3542 59.0521 25.2676 59.003 25.182C58.954 25.0965 58.9029 25.0122 58.8498 24.9292C58.7966 24.8462 58.7414 24.7645 58.6842 24.6841C58.627 24.6037 58.568 24.5249 58.507 24.4475C58.4459 24.3699 58.383 24.294 58.3181 24.2197C58.2534 24.1453 58.1869 24.0725 58.1186 24.0014C58.0502 23.9304 57.9801 23.861 57.9083 23.7933C57.8366 23.7256 57.7632 23.6597 57.6881 23.5956C57.6133 23.5315 57.5367 23.4693 57.4586 23.409C57.3806 23.3486 57.3011 23.2902 57.2203 23.2337C57.1393 23.1773 57.0571 23.1228 56.9736 23.0704C56.8899 23.0179 56.805 22.9676 56.7189 22.9193C56.6329 22.871 56.5457 22.8249 56.4574 22.7808C56.369 22.7368 56.2796 22.695 56.1892 22.6553C56.0989 22.6157 56.0076 22.5783 55.9155 22.5431C55.8232 22.5079 55.7302 22.475 55.6364 22.4444C55.5425 22.4137 55.448 22.3854 55.3527 22.3594C55.2575 22.3334 55.1617 22.3098 55.0654 22.2885C54.969 22.2671 54.8721 22.2482 54.7747 22.2316C54.6774 22.215 54.5798 22.2008 54.4817 22.189C54.3838 22.1772 54.2856 22.1678 54.187 22.1608C54.0885 22.1538 53.9899 22.1492 53.8912 22.1471C53.7925 22.1449 53.6938 22.1452 53.5952 22.1478C53.4965 22.1505 53.3979 22.1555 53.2996 22.163C53.201 22.1705 53.1028 22.1804 53.0049 22.1927Z" fill="#FBFAFD"/>
<path d="M34.3359 36.5266C34.2019 36.5392 34.0678 36.5486 33.9334 36.5547C33.7988 36.5608 33.6642 36.5636 33.5297 36.5631C33.3951 36.5627 33.2606 36.5589 33.1262 36.5519C32.9918 36.5448 32.8577 36.5345 32.7239 36.5209C32.59 36.5072 32.4565 36.4902 32.3236 36.47C32.1904 36.4499 32.0579 36.4265 31.926 36.3999C31.7941 36.3732 31.663 36.3432 31.5326 36.3101C31.4021 36.2769 31.2726 36.2407 31.144 36.2012C31.0154 36.1618 30.8878 36.1192 30.7612 36.0734C30.6346 36.0278 30.5093 35.979 30.3853 35.9271C30.261 35.8753 30.1382 35.8204 30.0168 35.7624C29.8954 35.7046 29.7755 35.6437 29.6571 35.5799C29.5385 35.5163 29.4216 35.4497 29.3065 35.3801C29.1914 35.3107 29.078 35.2385 28.9663 35.1634C28.8547 35.0883 28.7451 35.0106 28.6373 34.9303C28.5295 34.8497 28.4238 34.7667 28.3201 34.6812C28.2164 34.5955 28.1148 34.5074 28.0153 34.4169C27.916 34.3263 27.819 34.2334 27.7242 34.138C27.6294 34.0426 27.537 33.945 27.4469 33.845C27.357 33.7451 27.2695 33.6431 27.1845 33.539C27.0996 33.4348 27.0172 33.3287 26.9375 33.2205C26.8576 33.1123 26.7805 33.0022 26.7063 32.8902C26.6319 32.7783 26.5604 32.6645 26.4918 32.549C26.423 32.4336 26.3571 32.3165 26.2942 32.1976C26.2312 32.0789 26.1712 31.9588 26.1142 31.8371C26.057 31.7155 26.0029 31.5925 25.952 31.4682C25.901 31.3439 25.853 31.2184 25.8082 31.0918C25.7634 30.9651 25.7217 30.8374 25.683 30.7088C25.6445 30.5801 25.6091 30.4505 25.577 30.3201C25.5447 30.1896 25.5158 30.0584 25.4901 29.9266C25.4644 29.7947 25.4419 29.6624 25.4226 29.5295C25.4035 29.3964 25.3876 29.263 25.3749 29.1294C25.3623 28.9957 25.3529 28.8617 25.347 28.7273C25.3409 28.5932 25.3381 28.459 25.3385 28.3246C25.3391 28.1903 25.3431 28.0561 25.3503 27.9219C25.3573 27.7878 25.3677 27.6539 25.3815 27.5204C25.3953 27.3867 25.4123 27.2535 25.4325 27.1207C25.4529 26.9878 25.4765 26.8555 25.5032 26.7239C25.53 26.5922 25.56 26.4614 25.5932 26.3313C25.6266 26.201 25.663 26.0717 25.7025 25.9433C25.7421 25.815 25.7849 25.6877 25.8308 25.5615C25.8767 25.4352 25.9256 25.3101 25.9776 25.1862C26.0297 25.0622 26.0847 24.9397 26.1428 24.8185C26.2008 24.6973 26.2618 24.5776 26.3259 24.4594C26.3898 24.3412 26.4566 24.2246 26.5263 24.1097C26.5959 23.9948 26.6683 23.8816 26.7437 23.7703C26.8188 23.659 26.8968 23.5495 26.9775 23.4419C27.0581 23.3344 27.1414 23.2289 27.2272 23.1254C27.3131 23.0219 27.4013 22.9206 27.492 22.8215C27.5829 22.7223 27.6761 22.6255 27.7717 22.5309C27.8672 22.4364 27.965 22.3442 28.0651 22.2544C28.1652 22.1646 28.2675 22.0774 28.372 21.9926C28.4763 21.9078 28.5828 21.8257 28.6913 21.7461C28.7997 21.6666 28.91 21.5898 29.0222 21.5156C29.1345 21.4415 29.2485 21.3701 29.3643 21.3016C29.4801 21.233 29.5974 21.1674 29.7163 21.1046C29.8354 21.0418 29.9558 20.982 30.0777 20.9251C30.1996 20.8682 30.3228 20.8143 30.4473 20.7635C30.572 20.7126 30.6978 20.6649 30.8247 20.6202C30.9516 20.5755 31.0795 20.5339 31.2084 20.4955C31.3373 20.4571 31.4672 20.4219 31.598 20.3899C31.7286 20.3578 31.86 20.329 31.992 20.3034C32.1242 20.2778 32.2569 20.2554 32.39 20.2363C32.5234 20.2172 32.657 20.2014 32.7909 20.1889C32.9248 20.1763 33.0589 20.1671 33.1932 20.1611C33.3276 20.1551 33.4621 20.1525 33.5966 20.1531C33.731 20.1537 33.8654 20.1576 33.9996 20.1648C34.134 20.172 34.268 20.1825 34.4017 20.1962C34.5354 20.21 34.6688 20.227 34.8018 20.2474C34.9348 20.2677 35.0672 20.2912 35.1989 20.318C35.3307 20.3448 35.4617 20.3748 35.592 20.4079C35.7224 20.4411 35.8517 20.4775 35.9802 20.5171C36.1088 20.5566 36.2363 20.5993 36.3627 20.645C36.4892 20.6908 36.6143 20.7397 36.7382 20.7916C36.8623 20.8435 36.9849 20.8985 37.1062 20.9564C37.2276 21.0143 37.3474 21.0752 37.4657 21.139C37.584 21.2028 37.7007 21.2694 37.8158 21.339C37.9308 21.4085 38.044 21.4807 38.1556 21.5558C38.2671 21.6309 38.3767 21.7086 38.4843 21.7891C38.5919 21.8695 38.6976 21.9525 38.8013 22.0381C38.9048 22.1237 39.0062 22.2118 39.1053 22.3024C39.2047 22.393 39.3016 22.4859 39.3962 22.5813C39.491 22.6766 39.5833 22.7742 39.6733 22.874C39.7632 22.9739 39.8505 23.0758 39.9353 23.18C40.0202 23.2841 40.1025 23.3903 40.1822 23.4985C40.2618 23.6065 40.3387 23.7165 40.413 23.8285C40.4872 23.9404 40.5586 24.0541 40.6273 24.1695C40.6959 24.2849 40.7617 24.4019 40.8246 24.5206C40.8874 24.6393 40.9474 24.7595 41.0044 24.8811C41.0614 25.0026 41.1154 25.1255 41.1663 25.2498C41.2172 25.3739 41.265 25.4994 41.3099 25.626C41.3547 25.7525 41.3963 25.8801 41.4349 26.0088C41.4734 26.1373 41.5087 26.2668 41.5408 26.3972C41.5729 26.5276 41.6018 26.6586 41.6275 26.7903C41.6532 26.9221 41.6757 27.0544 41.695 27.1873C41.7141 27.3201 41.73 27.4533 41.7427 27.587C41.7554 27.7207 41.7647 27.8545 41.7706 27.9885C41.7767 28.1227 41.7796 28.2569 41.7791 28.391C41.7785 28.5253 41.7746 28.6595 41.7676 28.7935C41.7604 28.9276 41.7499 29.0615 41.7361 29.195C41.7225 29.3286 41.7055 29.4616 41.6853 29.5942C41.665 29.727 41.6414 29.8591 41.6146 29.9906C41.588 30.1222 41.5581 30.2531 41.5248 30.3832C41.4916 30.5133 41.4552 30.6425 41.4156 30.7707C41.3761 30.899 41.3335 31.0263 41.2878 31.1525C41.2419 31.2787 41.193 31.4037 41.1411 31.5275C41.0891 31.6514 41.0341 31.7738 40.9762 31.8948C40.9182 32.016 40.8573 32.1357 40.7934 32.2539C40.7296 32.372 40.6629 32.4885 40.5932 32.6034C40.5236 32.7183 40.4513 32.8314 40.3763 32.9428C40.3011 33.0541 40.2233 33.1635 40.1427 33.2709C40.0622 33.3785 39.9791 33.4839 39.8934 33.5873C39.8077 33.6908 39.7196 33.7921 39.6289 33.8912C39.5382 33.9904 39.445 34.0872 39.3495 34.1818C39.2541 34.2763 39.1564 34.3685 39.0565 34.4584C38.9565 34.5481 38.8544 34.6354 38.7501 34.7201C38.6457 34.8049 38.5394 34.887 38.4312 34.9666C38.3228 35.0462 38.2126 35.1231 38.1006 35.1972C37.9884 35.2713 37.8746 35.3427 37.7589 35.4113C37.6433 35.48 37.5262 35.5457 37.4074 35.6086C37.2885 35.6714 37.1682 35.7313 37.0465 35.7882C36.9246 35.8451 36.8015 35.8991 36.6771 35.9501C36.5527 36.0009 36.4271 36.0487 36.3002 36.0936C36.1735 36.1383 36.0458 36.1799 35.917 36.2184C35.7881 36.257 35.6584 36.2923 35.5279 36.3244C35.3972 36.3566 35.266 36.3855 35.1341 36.4112C35.002 36.437 34.8694 36.4595 34.7363 36.4787C34.6033 36.4979 34.4698 36.5139 34.3359 36.5266ZM33.2195 22.3463C33.1208 22.3519 33.0224 22.3599 32.9241 22.3703C32.8259 22.3807 32.728 22.3935 32.6304 22.4087C32.5328 22.4239 32.4356 22.4415 32.3388 22.4615C32.2422 22.4814 32.146 22.5038 32.0503 22.5285C31.9547 22.5532 31.8598 22.5802 31.7655 22.6096C31.6712 22.6389 31.5777 22.6706 31.4849 22.7045C31.3922 22.7385 31.3003 22.7747 31.2093 22.8131C31.1183 22.8516 31.0283 22.8922 30.9393 22.9351C30.8504 22.978 30.7626 23.023 30.6759 23.0702C30.5891 23.1174 30.5036 23.1666 30.4193 23.218C30.3349 23.2694 30.2519 23.3228 30.1703 23.3783C30.0885 23.4337 30.0082 23.4911 29.9294 23.5505C29.8506 23.61 29.7732 23.6713 29.6973 23.7344C29.6214 23.7976 29.5473 23.8626 29.4747 23.9293C29.4021 23.9963 29.3311 24.0648 29.2619 24.135C29.1925 24.2054 29.1249 24.2774 29.0593 24.351C28.9935 24.4247 28.9296 24.4998 28.8676 24.5764C28.8057 24.6532 28.7456 24.7315 28.6874 24.8112C28.6292 24.891 28.5731 24.972 28.5189 25.0544C28.4647 25.1368 28.4126 25.2206 28.3626 25.3056C28.3125 25.3907 28.2646 25.4769 28.2188 25.5643C28.1729 25.6516 28.1293 25.74 28.0879 25.8296C28.0464 25.919 28.0072 26.0095 27.9702 26.101C27.9332 26.1924 27.8985 26.2847 27.8661 26.3777C27.8337 26.4709 27.8035 26.5648 27.7757 26.6594C27.7478 26.754 27.7223 26.8492 27.6993 26.9451C27.6761 27.0409 27.6554 27.1373 27.637 27.2343C27.6185 27.331 27.6025 27.4283 27.5889 27.526C27.5754 27.6238 27.5643 27.7217 27.5555 27.8199C27.5467 27.9181 27.5403 28.0165 27.5362 28.115C27.5323 28.2135 27.5308 28.3121 27.5318 28.4107C27.5327 28.5092 27.5361 28.6077 27.5419 28.7062C27.5477 28.8047 27.5559 28.9029 27.5665 29.0008C27.577 29.0989 27.59 29.1966 27.6055 29.294C27.6209 29.3914 27.6387 29.4884 27.6589 29.5851C27.6791 29.6815 27.7016 29.7775 27.7265 29.8728C27.7515 29.9682 27.7787 30.063 27.8083 30.1571C27.8379 30.2512 27.8698 30.3445 27.904 30.4369C27.9383 30.5295 27.9748 30.6211 28.0135 30.7118C28.0521 30.8025 28.093 30.8922 28.1361 30.9811C28.1792 31.0697 28.2245 31.1573 28.2719 31.2437C28.3194 31.3302 28.3689 31.4155 28.4204 31.4996C28.4721 31.5837 28.5258 31.6665 28.5816 31.7478C28.6372 31.8292 28.6949 31.9093 28.7546 31.9879C28.8142 32.0666 28.8758 32.1437 28.9392 32.2192C29.0027 32.2947 29.0679 32.3687 29.135 32.4411C29.202 32.5135 29.2709 32.5841 29.3415 32.6531C29.412 32.7222 29.4842 32.7894 29.5582 32.8548C29.6319 32.9203 29.7074 32.984 29.7844 33.0457C29.8615 33.1075 29.94 33.1673 30.0199 33.2252C30.0998 33.2832 30.1811 33.3391 30.2638 33.3928C30.3465 33.4468 30.4305 33.4987 30.5159 33.5486C30.6011 33.5983 30.6875 33.646 30.7751 33.6917C30.8628 33.7372 30.9515 33.7805 31.0413 33.8216C31.1309 33.8629 31.2216 33.9019 31.3134 33.9386C31.405 33.9754 31.4975 34.0098 31.5909 34.0421C31.6843 34.0743 31.7783 34.1041 31.8731 34.1317C31.968 34.1593 32.0635 34.1846 32.1595 34.2074C32.2556 34.2304 32.3521 34.251 32.4493 34.2691C32.5464 34.2872 32.6439 34.303 32.7418 34.3165C32.8397 34.3299 32.9378 34.3409 33.0362 34.3495C33.1346 34.358 33.2331 34.3641 33.3318 34.3678C33.4305 34.3716 33.5293 34.3729 33.6281 34.3718C33.727 34.3707 33.8257 34.3672 33.9242 34.3613C34.0226 34.3553 34.1207 34.347 34.2186 34.3362C34.3167 34.3255 34.4143 34.3124 34.5116 34.2968C34.6089 34.2813 34.7058 34.2635 34.8023 34.2433C34.8986 34.223 34.9945 34.2003 35.0899 34.1753C35.1851 34.1504 35.2797 34.1232 35.3737 34.0937C35.4677 34.064 35.5609 34.0321 35.6534 33.998C35.7458 33.9639 35.8373 33.9275 35.928 33.8889C36.0186 33.8503 36.1082 33.8094 36.1968 33.7662C36.2855 33.7232 36.373 33.6781 36.4593 33.6309C36.5458 33.5835 36.631 33.5341 36.715 33.4827C36.7989 33.4312 36.8816 33.3778 36.9631 33.3223C37.0444 33.2667 37.1243 33.2093 37.2028 33.1499C37.2812 33.0904 37.3583 33.0292 37.434 32.966C37.5095 32.9027 37.5833 32.8376 37.6556 32.7708C37.7279 32.7041 37.7986 32.6355 37.8675 32.5651C37.9364 32.4949 38.0036 32.423 38.0691 32.3494C38.1346 32.2759 38.1982 32.2008 38.2599 32.1242C38.3216 32.0474 38.3814 31.9693 38.4392 31.8897C38.4971 31.8101 38.5531 31.7292 38.607 31.6469C38.6608 31.5645 38.7127 31.4809 38.7625 31.396C38.8123 31.3111 38.86 31.225 38.9056 31.1377C38.9512 31.0506 38.9947 30.9624 39.036 30.8729C39.0772 30.7836 39.1162 30.6934 39.153 30.602C39.1898 30.5109 39.2244 30.4189 39.2567 30.326C39.2889 30.2329 39.3189 30.1392 39.3467 30.0448C39.3742 29.9505 39.3995 29.8555 39.4225 29.7598C39.4456 29.6641 39.4663 29.5679 39.4846 29.4713C39.5029 29.3747 39.5188 29.2777 39.5323 29.1802C39.5458 29.0828 39.5569 28.9851 39.5656 28.8871C39.5744 28.789 39.5808 28.6909 39.5847 28.5927C39.5886 28.4944 39.5901 28.396 39.5891 28.2977C39.5882 28.1993 39.5848 28.101 39.579 28.0028C39.5732 27.9047 39.5651 27.8066 39.5546 27.7087C39.544 27.611 39.531 27.5136 39.5156 27.4165C39.5002 27.3192 39.4825 27.2224 39.4625 27.1261C39.4423 27.0298 39.4198 26.9341 39.3951 26.8391C39.3702 26.7438 39.343 26.6492 39.3135 26.5553C39.2841 26.4614 39.2524 26.3684 39.2184 26.2762C39.1844 26.1837 39.1481 26.0923 39.1096 26.0017C39.071 25.9112 39.0303 25.8217 38.9874 25.7332C38.9445 25.6447 38.8993 25.5572 38.852 25.4707C38.8049 25.3844 38.7556 25.2994 38.7042 25.2156C38.6527 25.1316 38.5992 25.049 38.5438 24.9676C38.4883 24.8863 38.4309 24.8064 38.3715 24.7279C38.3121 24.6495 38.2509 24.5724 38.1878 24.4969C38.1246 24.4214 38.0596 24.3475 37.9927 24.2753C37.926 24.2029 37.8575 24.1322 37.7871 24.0633C37.7168 23.9943 37.6449 23.9271 37.5714 23.8615C37.4978 23.7962 37.4226 23.7326 37.3459 23.6709C37.2693 23.6091 37.1911 23.5492 37.1114 23.4912C37.0318 23.4333 36.9508 23.3774 36.8684 23.3234C36.786 23.2694 36.7023 23.2175 36.6174 23.1676C36.5325 23.1178 36.4464 23.07 36.359 23.0243C36.2717 22.9786 36.1834 22.9351 36.0939 22.8938C36.0045 22.8525 35.9141 22.8133 35.8228 22.7764C35.7314 22.7395 35.6393 22.7049 35.5462 22.6725C35.4532 22.6401 35.3594 22.61 35.2649 22.5821C35.1703 22.5543 35.0752 22.5289 34.9794 22.5057C34.8836 22.4826 34.7872 22.4618 34.6904 22.4433C34.5936 22.4249 34.4964 22.4088 34.3988 22.3951C34.3012 22.3815 34.2034 22.3702 34.1054 22.3613C34.0071 22.3524 33.9088 22.3459 33.8105 22.3418C33.7119 22.3378 33.6134 22.3361 33.5149 22.3368C33.4163 22.3376 33.3179 22.3407 33.2195 22.3463Z" fill="#FBFAFD"/>
<path d="M54.543 34.1577C54.4448 34.1705 54.3464 34.1809 54.2477 34.1889C54.1488 34.197 54.0499 34.2026 53.9509 34.2058C53.8519 34.2089 53.7529 34.2096 53.6539 34.2079C53.5549 34.2062 53.456 34.202 53.3571 34.1954C53.2583 34.1889 53.1597 34.1799 53.0613 34.1685C52.9629 34.1571 52.8649 34.1433 52.7671 34.1272C52.6694 34.1109 52.5721 34.0923 52.4753 34.0714C52.3785 34.0504 52.2822 34.027 52.1865 34.0012C52.0909 33.9756 51.996 33.9475 51.9017 33.917C51.8074 33.8867 51.714 33.8541 51.6214 33.8192C51.5286 33.7842 51.4369 33.7469 51.3462 33.7074C51.2554 33.668 51.1655 33.6263 51.0767 33.5824C50.9879 33.5386 50.9002 33.4926 50.8138 33.4444C50.7273 33.3963 50.642 33.346 50.5579 33.2936C50.4739 33.2413 50.3913 33.1868 50.31 33.1304C50.2285 33.0739 50.1486 33.0156 50.0701 32.9552C49.9918 32.8948 49.9149 32.8326 49.8393 32.7685C49.764 32.7044 49.6902 32.6385 49.618 32.5708C49.5459 32.5031 49.4755 32.4336 49.4068 32.3623C49.338 32.2911 49.271 32.2183 49.2059 32.1439C49.1407 32.0693 49.0774 31.9933 49.016 31.9157C48.9546 31.8382 48.8951 31.7591 48.8377 31.6786C48.7802 31.5981 48.7247 31.5162 48.6713 31.433C48.6179 31.3497 48.5665 31.2652 48.5172 31.1795C48.4678 31.0936 48.4207 31.0067 48.3757 30.9187C48.3306 30.8306 48.2877 30.7415 48.2472 30.6513C48.2064 30.5611 48.1681 30.47 48.132 30.3781C48.0959 30.286 48.0619 30.193 48.0303 30.0992C47.9988 30.0055 47.9696 29.9111 47.9426 29.8159C47.9157 29.7208 47.8912 29.6251 47.8691 29.5288C47.8469 29.4323 47.827 29.3354 47.8097 29.2382C47.7921 29.1408 47.7771 29.043 47.7645 28.945C47.752 28.847 47.7418 28.7486 47.734 28.6499C47.7262 28.5514 47.7208 28.4528 47.718 28.354C47.715 28.2551 47.7146 28.1562 47.7166 28.0573C47.7185 27.9584 47.7229 27.8597 47.7298 27.761C47.7367 27.6624 47.7459 27.5639 47.7575 27.4657C47.7692 27.3676 47.7833 27.2697 47.7998 27.1723C47.8164 27.0748 47.8353 26.9777 47.8564 26.8813C47.8777 26.7846 47.9014 26.6886 47.9274 26.5933C47.9534 26.4979 47.9817 26.4032 48.0124 26.3092C48.0431 26.2151 48.0761 26.1218 48.1114 26.0294C48.1468 25.937 48.1844 25.8455 48.2241 25.755C48.2638 25.6645 48.3058 25.575 48.3501 25.4865C48.3943 25.398 48.4406 25.3106 48.489 25.2245C48.5375 25.1382 48.5881 25.0532 48.6408 24.9695C48.6934 24.8857 48.7481 24.8033 48.805 24.7223C48.8617 24.6412 48.9204 24.5616 48.981 24.4836C49.0416 24.4054 49.1042 24.3287 49.1687 24.2535C49.2331 24.1784 49.2994 24.105 49.3675 24.0332C49.4355 23.9613 49.5053 23.8912 49.5769 23.8228C49.6483 23.7544 49.7215 23.6877 49.7963 23.6228C49.8711 23.5581 49.9474 23.4951 50.0254 23.434C50.1033 23.3729 50.1826 23.3138 50.2635 23.2566C50.3443 23.1994 50.4265 23.1443 50.51 23.0911C50.5935 23.0379 50.6782 22.9869 50.7642 22.9379C50.8504 22.8889 50.9376 22.842 51.026 22.7973C51.1143 22.7526 51.2037 22.7101 51.2941 22.6698C51.3846 22.6295 51.476 22.5914 51.5683 22.5556C51.6607 22.5198 51.7538 22.4862 51.8477 22.4549C51.9416 22.4237 52.0364 22.3947 52.132 22.3681C52.2274 22.3415 52.3233 22.3173 52.4198 22.2954C52.5165 22.2735 52.6136 22.254 52.7112 22.2368C52.8088 22.2197 52.9067 22.205 53.0049 22.1926C53.1028 22.1804 53.201 22.1705 53.2996 22.163C53.3979 22.1555 53.4965 22.1505 53.5952 22.1478C53.6938 22.1451 53.7925 22.1449 53.8912 22.147C53.9899 22.1492 54.0885 22.1538 54.187 22.1608C54.2856 22.1678 54.3838 22.1772 54.4817 22.189C54.5798 22.2008 54.6774 22.215 54.7747 22.2316C54.8721 22.2482 54.969 22.2671 55.0654 22.2884C55.1617 22.3097 55.2575 22.3334 55.3527 22.3594C55.448 22.3854 55.5425 22.4137 55.6364 22.4444C55.7302 22.475 55.8232 22.5079 55.9155 22.5431C56.0076 22.5783 56.0989 22.6157 56.1892 22.6553C56.2796 22.695 56.369 22.7368 56.4574 22.7808C56.5457 22.8248 56.6329 22.871 56.7189 22.9193C56.805 22.9676 56.8899 23.0179 56.9736 23.0704C57.0571 23.1228 57.1393 23.1772 57.2203 23.2337C57.3011 23.2902 57.3806 23.3486 57.4586 23.4089C57.5367 23.4693 57.6133 23.5315 57.6881 23.5956C57.7632 23.6597 57.8366 23.7256 57.9083 23.7933C57.9801 23.861 58.0502 23.9303 58.1186 24.0013C58.1869 24.0725 58.2534 24.1453 58.3181 24.2197C58.383 24.294 58.4459 24.3699 58.507 24.4474C58.568 24.5248 58.627 24.6037 58.6842 24.6841C58.7414 24.7645 58.7966 24.8462 58.8498 24.9292C58.9029 25.0122 58.954 25.0965 59.003 25.182C59.0521 25.2675 59.099 25.3542 59.1438 25.4419C59.1886 25.5298 59.2312 25.6187 59.2716 25.7086C59.312 25.7985 59.3502 25.8893 59.3861 25.9811C59.4221 26.0729 59.4558 26.1655 59.4871 26.259C59.5184 26.3524 59.5475 26.4465 59.5743 26.5414C59.6011 26.6362 59.6255 26.7316 59.6476 26.8278C59.6697 26.9238 59.6894 27.0203 59.7068 27.1172C59.7242 27.2143 59.7391 27.3117 59.7517 27.4095C59.7642 27.5072 59.7744 27.6051 59.7822 27.7033C59.7899 27.8017 59.7952 27.9001 59.7982 27.9986C59.8012 28.0971 59.8016 28.1956 59.7996 28.2941C59.7977 28.3927 59.7934 28.4911 59.7867 28.5894C59.7799 28.6876 59.7708 28.7857 59.7592 28.8836C59.7476 28.9814 59.7337 29.079 59.7174 29.1763C59.7011 29.2734 59.6824 29.3701 59.6612 29.4664C59.6401 29.5627 59.6166 29.6584 59.5907 29.7535C59.565 29.8485 59.5369 29.943 59.5064 30.0368C59.476 30.1306 59.4433 30.2236 59.4084 30.3157C59.3733 30.4078 59.336 30.499 59.2965 30.5894C59.2571 30.6796 59.2154 30.7689 59.1715 30.8572C59.1277 30.9456 59.0817 31.0327 59.0336 31.1187C58.9853 31.2047 58.9351 31.2896 58.8827 31.3732C58.8304 31.4567 58.7761 31.539 58.7199 31.6199C58.6635 31.7008 58.6052 31.7802 58.5449 31.8582C58.4847 31.9364 58.4226 32.013 58.3585 32.0879C58.2944 32.1629 58.2287 32.2364 58.1611 32.3083C58.0935 32.3801 58.0241 32.4501 57.953 32.5185C57.882 32.587 57.8093 32.6537 57.7349 32.7185C57.6606 32.7833 57.5848 32.8462 57.5072 32.9073C57.4298 32.9685 57.351 33.0277 57.2706 33.0851C57.1904 33.1424 57.1087 33.1976 57.0255 33.251C56.9425 33.3043 56.8582 33.3555 56.7727 33.4046C56.6872 33.4538 56.6005 33.5009 56.5126 33.5458C56.4247 33.5906 56.3357 33.6334 56.2456 33.6741C56.1557 33.7146 56.0649 33.7529 55.9731 33.789C55.8811 33.8251 55.7884 33.859 55.6949 33.8905C55.6013 33.9221 55.5071 33.9514 55.4122 33.9785C55.3173 34.0054 55.2217 34.03 55.1255 34.0524C55.0293 34.0746 54.9327 34.0945 54.8356 34.1122C54.7384 34.1297 54.6409 34.1449 54.543 34.1577ZM55.3231 23.896C55.2902 23.9043 55.2577 23.9134 55.2254 23.9232C55.193 23.9332 55.1608 23.944 55.1288 23.9554C55.097 23.9668 55.0655 23.9791 55.0341 23.9922C55.0028 24.0052 54.9719 24.0188 54.9413 24.0332C54.9108 24.0478 54.8805 24.063 54.8506 24.079C54.8207 24.0951 54.7912 24.1118 54.7623 24.1292C54.7333 24.1465 54.7047 24.1647 54.6765 24.1836C54.6483 24.2023 54.6206 24.2218 54.5933 24.242C54.5662 24.2621 54.5395 24.2829 54.5132 24.3044C54.487 24.3258 54.4614 24.3478 54.4364 24.3705C54.4113 24.3932 54.3868 24.4165 54.3628 24.4404C54.3387 24.4643 54.3153 24.4888 54.2926 24.5138C54.2698 24.5388 54.2477 24.5644 54.2261 24.5905C54.2046 24.6166 54.1838 24.6433 54.1635 24.6705C54.1432 24.6975 54.1236 24.7251 54.1048 24.7533C54.0859 24.7813 54.0677 24.8097 54.0503 24.8386C54.0327 24.8677 54.016 24.8971 54 24.9268C53.9839 24.9567 53.9685 24.9869 53.954 25.0174C53.9394 25.0479 53.9255 25.0787 53.9124 25.11C53.8994 25.1411 53.8871 25.1726 53.8755 25.2045C53.864 25.2363 53.8533 25.2683 53.8433 25.3007C53.8333 25.3329 53.8241 25.3654 53.8158 25.3983C53.8075 25.4311 53.7999 25.464 53.793 25.497C53.7863 25.5302 53.7803 25.5635 53.7751 25.5969C53.77 25.6304 53.7657 25.6639 53.7622 25.6975C53.7588 25.7312 53.7561 25.7649 53.7542 25.7986C53.7523 25.8324 53.7513 25.8662 53.7512 25.8999C53.7509 25.9339 53.7515 25.9677 53.7531 26.0015C53.7545 26.0353 53.7567 26.069 53.7599 26.1026C53.7628 26.1364 53.7668 26.17 53.7716 26.2034C53.7763 26.2369 53.7818 26.2702 53.7881 26.3034C53.7945 26.3367 53.8017 26.3697 53.8097 26.4026C53.8177 26.4354 53.8264 26.4681 53.836 26.5006C53.8456 26.533 53.8559 26.5651 53.867 26.597C53.8783 26.6291 53.8903 26.6607 53.903 26.692C53.9157 26.7234 53.929 26.7545 53.9431 26.7851C53.9574 26.8158 53.9724 26.8461 53.988 26.8761C54.0037 26.9061 54.0201 26.9357 54.0374 26.9648C54.0544 26.994 54.0723 27.0228 54.0909 27.0511C54.1094 27.0794 54.1286 27.1072 54.1485 27.1346C54.1684 27.1619 54.1889 27.1888 54.2101 27.215C54.2314 27.2414 54.2532 27.2673 54.2756 27.2927C54.2982 27.318 54.3213 27.3427 54.3449 27.3668C54.3686 27.391 54.3929 27.4146 54.4178 27.4376C54.4425 27.4606 54.4679 27.4829 54.4939 27.5047C54.5198 27.5266 54.5462 27.5478 54.5731 27.5682C54.6001 27.5887 54.6275 27.6085 54.6556 27.6276C54.6835 27.6467 54.7118 27.6651 54.7406 27.6829C54.7695 27.7008 54.7987 27.7178 54.8283 27.7341C54.8581 27.7505 54.8881 27.7661 54.9185 27.781C54.9489 27.7958 54.9797 27.8099 55.0109 27.8232C55.042 27.8366 55.0734 27.8493 55.1051 27.8612C55.1369 27.8729 55.1689 27.8839 55.2012 27.8943C55.2335 27.9046 55.266 27.9141 55.2987 27.9229C55.3314 27.9315 55.3643 27.9394 55.3974 27.9466C55.4306 27.9536 55.4639 27.9598 55.4973 27.9653C55.5306 27.9708 55.5641 27.9755 55.5978 27.9794C55.6315 27.9833 55.6653 27.9864 55.6991 27.9885C55.7329 27.9907 55.7668 27.9921 55.8006 27.9928C55.8344 27.9932 55.8683 27.9929 55.9021 27.9918C55.9361 27.9907 55.9699 27.9889 56.0036 27.9862C56.0375 27.9834 56.0711 27.9798 56.1047 27.9754C56.1383 27.971 56.1718 27.9659 56.205 27.9599C56.2384 27.954 56.2716 27.9472 56.3046 27.9395C56.3493 27.9292 56.3935 27.9175 56.4374 27.9043C56.4812 27.8911 56.5246 27.8764 56.5673 27.8605C56.6102 27.8444 56.6525 27.8269 56.6942 27.8079C56.736 27.7892 56.7771 27.769 56.8176 27.7474C56.8578 27.7259 56.8975 27.703 56.9365 27.6789C56.9753 27.6549 57.0133 27.6295 57.0504 27.6027C57.0877 27.5761 57.124 27.5483 57.1594 27.5192C57.1947 27.4901 57.229 27.46 57.2624 27.4287C57.2959 27.3974 57.3282 27.3651 57.3594 27.3316C57.3906 27.2981 57.4207 27.2637 57.4496 27.2284C57.4786 27.1929 57.5064 27.1565 57.5331 27.1193C57.5595 27.0821 57.5848 27.044 57.609 27.0051C57.6329 26.9663 57.6556 26.9267 57.6771 26.8862C57.6986 26.8459 57.7187 26.8048 57.7375 26.7631C57.7561 26.7213 57.7734 26.679 57.7894 26.6362C57.8054 26.5933 57.8199 26.55 57.8329 26.5062C57.8459 26.4625 57.8575 26.4183 57.8677 26.3737C57.8778 26.3292 57.8865 26.2843 57.8937 26.2391C57.9009 26.1939 57.9067 26.1486 57.9109 26.1031C57.915 26.0576 57.9176 26.012 57.9189 25.9663C57.92 25.9207 57.9197 25.875 57.9179 25.8294C57.9161 25.7837 57.9127 25.7381 57.9078 25.6926C57.903 25.6471 57.8966 25.6018 57.8888 25.5568C57.881 25.5118 57.8717 25.4671 57.8611 25.4227C57.8503 25.3783 57.838 25.3342 57.8242 25.2906C57.8106 25.247 57.7954 25.2038 57.7788 25.1611C57.7624 25.1186 57.7445 25.0766 57.7253 25.0352C57.7058 24.9938 57.6852 24.9529 57.6632 24.9128C57.6411 24.8727 57.6178 24.8334 57.5932 24.7948C57.5686 24.7563 57.5428 24.7186 57.5157 24.6817C57.4886 24.6448 57.4603 24.609 57.4308 24.5741C57.4014 24.5391 57.3708 24.5051 57.3392 24.4721C57.3076 24.4391 57.2748 24.4072 57.241 24.3764C57.2071 24.3456 57.1723 24.3159 57.1364 24.2872C57.1007 24.2588 57.0641 24.2315 57.0265 24.2054C56.9889 24.1793 56.9505 24.1544 56.9113 24.1308C56.872 24.1072 56.8321 24.0849 56.7915 24.064C56.7508 24.043 56.7094 24.0234 56.6674 24.0051C56.6254 23.9868 56.5829 23.97 56.5398 23.9547C56.4966 23.9392 56.453 23.9251 56.4089 23.9124C56.3649 23.8999 56.3206 23.8888 56.276 23.8791C56.2312 23.8694 56.1861 23.8613 56.1408 23.8547C56.0954 23.848 56.0499 23.8428 56.0043 23.839C55.9587 23.8353 55.913 23.8331 55.8671 23.8325C55.8214 23.8317 55.7756 23.8325 55.7299 23.8348C55.6841 23.8372 55.6385 23.841 55.5931 23.8463C55.5475 23.8516 55.5023 23.8584 55.4573 23.8667C55.4122 23.875 55.3675 23.8848 55.3231 23.896Z" fill="black"/>
<path d="M33.9242 34.3613C33.8256 34.3672 33.7269 34.3707 33.6281 34.3718C33.5293 34.3729 33.4305 34.3716 33.3318 34.3678C33.2331 34.3641 33.1346 34.358 33.0362 34.3495C32.9378 34.3409 32.8397 34.3299 32.7418 34.3165C32.6439 34.303 32.5464 34.2872 32.4492 34.2691C32.3521 34.251 32.2556 34.2304 32.1595 34.2074C32.0635 34.1846 31.968 34.1593 31.8731 34.1317C31.7783 34.1041 31.6843 34.0743 31.5909 34.0421C31.4975 34.0099 31.405 33.9754 31.3134 33.9386C31.2216 33.9019 31.1309 33.8629 31.0413 33.8216C30.9515 33.7805 30.8628 33.7372 30.7751 33.6917C30.6875 33.646 30.6011 33.5983 30.5159 33.5486C30.4305 33.4987 30.3465 33.4468 30.2638 33.3929C30.1811 33.3391 30.0998 33.2832 30.0199 33.2252C29.94 33.1673 29.8615 33.1075 29.7844 33.0457C29.7073 32.984 29.6319 32.9203 29.5581 32.8548C29.4842 32.7895 29.412 32.7222 29.3415 32.6531C29.2708 32.5842 29.202 32.5135 29.135 32.4411C29.0679 32.3687 29.0027 32.2947 28.9392 32.2192C28.8758 32.1437 28.8142 32.0666 28.7545 31.9879C28.6949 31.9093 28.6372 31.8292 28.5816 31.7478C28.5258 31.6665 28.4721 31.5838 28.4204 31.4996C28.3689 31.4155 28.3194 31.3302 28.2719 31.2438C28.2244 31.1573 28.1792 31.0697 28.1361 30.9811C28.093 30.8922 28.0521 30.8025 28.0134 30.7118C27.9747 30.6211 27.9382 30.5295 27.9039 30.4369C27.8698 30.3445 27.8379 30.2512 27.8083 30.1571C27.7787 30.063 27.7514 29.9682 27.7265 29.8729C27.7016 29.7775 27.6791 29.6815 27.6589 29.5851C27.6386 29.4884 27.6209 29.3914 27.6055 29.294C27.59 29.1966 27.577 29.0989 27.5665 29.0008C27.5559 28.9029 27.5476 28.8048 27.5418 28.7062C27.536 28.6077 27.5327 28.5092 27.5317 28.4107C27.5308 28.3121 27.5323 28.2135 27.5362 28.115C27.5403 28.0165 27.5467 27.9181 27.5555 27.8199C27.5642 27.7217 27.5754 27.6238 27.5888 27.526C27.6025 27.4283 27.6185 27.331 27.637 27.2343C27.6553 27.1373 27.6761 27.0409 27.6993 26.9451C27.7223 26.8492 27.7478 26.754 27.7756 26.6594C27.8035 26.5648 27.8337 26.4709 27.8661 26.3777C27.8985 26.2847 27.9332 26.1924 27.9702 26.101C28.0072 26.0095 28.0464 25.919 28.0879 25.8296C28.1293 25.74 28.1729 25.6516 28.2188 25.5643C28.2645 25.4769 28.3125 25.3907 28.3626 25.3056C28.4126 25.2206 28.4647 25.1368 28.5189 25.0544C28.5731 24.972 28.6292 24.891 28.6873 24.8112C28.7456 24.7315 28.8057 24.6532 28.8676 24.5764C28.9296 24.4997 28.9935 24.4245 29.0593 24.351C29.1249 24.2774 29.1924 24.2054 29.2618 24.135C29.3311 24.0648 29.402 23.9963 29.4747 23.9293C29.5473 23.8626 29.6214 23.7976 29.6972 23.7344C29.7732 23.6713 29.8506 23.61 29.9294 23.5506C30.0082 23.4911 30.0885 23.4337 30.1702 23.3783C30.2519 23.3228 30.3349 23.2694 30.4193 23.218C30.5036 23.1666 30.5891 23.1174 30.6759 23.0702C30.7625 23.023 30.8503 22.978 30.9393 22.9351C31.0283 22.8922 31.1183 22.8516 31.2093 22.8131C31.3003 22.7747 31.3922 22.7385 31.4849 22.7045C31.5777 22.6706 31.6712 22.6389 31.7655 22.6096C31.8598 22.5802 31.9547 22.5532 32.0503 22.5285C32.146 22.5038 32.2422 22.4814 32.3388 22.4615C32.4356 22.4415 32.5328 22.4239 32.6304 22.4087C32.728 22.3935 32.8259 22.3807 32.9241 22.3703C33.0223 22.3599 33.1208 22.3519 33.2195 22.3463C33.3179 22.3407 33.4163 22.3376 33.5148 22.3368C33.6134 22.3361 33.7119 22.3378 33.8104 22.3418C33.9088 22.3459 34.0071 22.3524 34.1053 22.3613C34.2034 22.3702 34.3012 22.3815 34.3988 22.3952C34.4964 22.4088 34.5936 22.4249 34.6904 22.4433C34.7872 22.4618 34.8836 22.4826 34.9794 22.5057C35.0751 22.5289 35.1703 22.5544 35.2649 22.5822C35.3594 22.61 35.4531 22.6401 35.5462 22.6725C35.6392 22.7049 35.7314 22.7395 35.8227 22.7764C35.9141 22.8133 36.0045 22.8525 36.0939 22.8938C36.1834 22.9352 36.2717 22.9787 36.359 23.0243C36.4464 23.07 36.5325 23.1178 36.6174 23.1676C36.7023 23.2175 36.786 23.2694 36.8684 23.3234C36.9508 23.3774 37.0318 23.4333 37.1113 23.4912C37.1911 23.5492 37.2692 23.6091 37.3458 23.6709C37.4226 23.7326 37.4978 23.7962 37.5714 23.8616C37.6449 23.9271 37.7168 23.9943 37.7871 24.0633C37.8575 24.1322 37.926 24.2029 37.9927 24.2753C38.0596 24.3475 38.1246 24.4214 38.1877 24.4969C38.2509 24.5724 38.3121 24.6495 38.3715 24.7279C38.4309 24.8064 38.4883 24.8863 38.5437 24.9677C38.5993 25.049 38.6528 25.1316 38.7042 25.2156C38.7556 25.2994 38.8049 25.3844 38.852 25.4707C38.8993 25.5572 38.9444 25.6447 38.9874 25.7332C39.0303 25.8217 39.071 25.9112 39.1095 26.0017C39.1481 26.0923 39.1843 26.1837 39.2183 26.2762C39.2523 26.3684 39.2841 26.4614 39.3135 26.5553C39.343 26.6492 39.3701 26.7438 39.395 26.8391C39.4198 26.9341 39.4423 27.0298 39.4625 27.1261C39.4825 27.2225 39.5002 27.3192 39.5156 27.4165C39.5309 27.5136 39.5439 27.611 39.5546 27.7087C39.5651 27.8066 39.5732 27.9047 39.579 28.0029C39.5848 28.101 39.5882 28.1993 39.5891 28.2977C39.5901 28.396 39.5886 28.4944 39.5847 28.5927C39.5807 28.6909 39.5744 28.789 39.5656 28.8871C39.5569 28.9851 39.5457 29.0828 39.5323 29.1803C39.5188 29.2777 39.5029 29.3747 39.4846 29.4713C39.4662 29.5679 39.4456 29.6641 39.4225 29.7598C39.3995 29.8555 39.3742 29.9505 39.3466 30.0448C39.3189 30.1392 39.2889 30.233 39.2566 30.326C39.2244 30.4189 39.1898 30.511 39.153 30.6023C39.1162 30.6934 39.0772 30.7837 39.036 30.8729C38.9946 30.9624 38.9512 31.0506 38.9056 31.1377C38.86 31.225 38.8123 31.3111 38.7625 31.396C38.7127 31.4809 38.6608 31.5645 38.6069 31.6469C38.5531 31.7292 38.4971 31.8101 38.4392 31.8897C38.3814 31.9693 38.3216 32.0474 38.2599 32.1242C38.1982 32.2008 38.1346 32.2759 38.0691 32.3494C38.0036 32.423 37.9364 32.4949 37.8675 32.5652C37.7986 32.6355 37.7279 32.7041 37.6555 32.7709C37.5833 32.8376 37.5095 32.9027 37.434 32.966C37.3583 33.0292 37.2812 33.0905 37.2027 33.1499C37.1243 33.2093 37.0444 33.2667 36.9631 33.3223C36.8816 33.3778 36.7989 33.4312 36.7149 33.4827C36.631 33.5341 36.5458 33.5835 36.4593 33.6309C36.373 33.6781 36.2855 33.7232 36.1968 33.7662C36.1082 33.8094 36.0186 33.8503 35.928 33.8889C35.8373 33.9275 35.7458 33.9639 35.6533 33.998C35.5609 34.0321 35.4677 34.064 35.3737 34.0937C35.2797 34.1232 35.1851 34.1504 35.0899 34.1753C34.9945 34.2003 34.8986 34.223 34.8023 34.2433C34.7058 34.2635 34.6089 34.2813 34.5116 34.2968C34.4143 34.3124 34.3167 34.3255 34.2186 34.3362C34.1207 34.347 34.0225 34.3553 33.9242 34.3613ZM35.1597 24.0743C35.1271 24.0819 35.0946 24.0905 35.0624 24.0998C35.0303 24.1091 34.9983 24.1191 34.9665 24.1299C34.9349 24.1408 34.9035 24.1525 34.8723 24.1648C34.8411 24.177 34.8103 24.1901 34.7797 24.204C34.7492 24.2179 34.719 24.2324 34.6892 24.2476C34.6593 24.2629 34.6299 24.279 34.6009 24.2957C34.5719 24.3124 34.5433 24.3299 34.5151 24.348C34.4869 24.3661 34.4592 24.385 34.4319 24.4045C34.4047 24.4239 34.3779 24.444 34.3516 24.4648C34.3253 24.4854 34.2995 24.5068 34.2743 24.5288C34.2491 24.5509 34.2243 24.5735 34.2 24.5966C34.1759 24.6199 34.1523 24.6437 34.1293 24.6679C34.1063 24.6923 34.0839 24.7172 34.0621 24.7427C34.0403 24.7681 34.0192 24.794 33.9987 24.8206C33.9781 24.847 33.9582 24.8739 33.939 24.9013C33.9199 24.9286 33.9014 24.9565 33.8835 24.9848C33.8657 25.0132 33.8484 25.042 33.8318 25.0711C33.8154 25.1002 33.7996 25.1297 33.7846 25.1597C33.7696 25.1896 33.7553 25.2199 33.7418 25.2505C33.7282 25.281 33.7154 25.3119 33.7033 25.3432C33.6912 25.3744 33.68 25.4059 33.6695 25.4377C33.659 25.4694 33.6492 25.5014 33.6401 25.5336C33.6312 25.5658 33.623 25.5983 33.6156 25.6309C33.6083 25.6636 33.6017 25.6964 33.5959 25.7294C33.5901 25.7623 33.5851 25.7953 33.5809 25.8287C33.5766 25.8618 33.5733 25.895 33.5708 25.9283C33.5681 25.9618 33.5663 25.9953 33.5654 26.0287C33.5644 26.0622 33.5643 26.0956 33.5649 26.1291C33.5657 26.1626 33.5672 26.1959 33.5694 26.2293C33.5717 26.2627 33.5748 26.296 33.5788 26.3292C33.5827 26.3625 33.5874 26.3956 33.5929 26.4286C33.5985 26.4616 33.6048 26.4944 33.6119 26.5271C33.6189 26.5598 33.6269 26.5923 33.6356 26.6247C33.6444 26.6569 33.6539 26.689 33.6641 26.7208C33.6744 26.7527 33.6854 26.7843 33.6972 26.8156C33.7089 26.8469 33.7215 26.8779 33.7348 26.9087C33.7481 26.9394 33.7622 26.9697 33.7771 26.9997C33.7918 27.0297 33.8072 27.0594 33.8234 27.0888C33.8397 27.1181 33.8567 27.1469 33.8744 27.1754C33.8919 27.2038 33.9101 27.2318 33.9291 27.2594C33.9481 27.287 33.9677 27.3142 33.9881 27.3407C34.0084 27.3673 34.0294 27.3934 34.0508 27.4191C34.0724 27.4447 34.0947 27.4697 34.1176 27.4941C34.1403 27.5187 34.1636 27.5427 34.1876 27.5661C34.2115 27.5896 34.2361 27.6124 34.2611 27.6346C34.2862 27.6568 34.3118 27.6784 34.338 27.6994C34.3641 27.7203 34.3907 27.7406 34.4178 27.7603C34.4449 27.78 34.4725 27.799 34.5006 27.8173C34.5286 27.8358 34.557 27.8535 34.5859 27.8703C34.6147 27.8874 34.644 27.9036 34.6737 27.9191C34.7033 27.9348 34.7333 27.9496 34.7637 27.9637C34.7941 27.9778 34.8249 27.9911 34.8561 28.0038C34.8871 28.0163 34.9184 28.0281 34.9501 28.0392C34.9817 28.0503 35.0136 28.0606 35.0457 28.0702C35.0778 28.0797 35.1102 28.0885 35.1427 28.0964C35.1752 28.1046 35.2078 28.1118 35.2407 28.118C35.2736 28.1244 35.3067 28.1301 35.3399 28.1349C35.3731 28.1397 35.4064 28.1437 35.4397 28.1469C35.4731 28.1501 35.5066 28.1526 35.5401 28.1541C35.5734 28.1557 35.6069 28.1564 35.6404 28.1562C35.6739 28.1562 35.7075 28.1554 35.741 28.1537C35.7745 28.1519 35.8079 28.1494 35.8413 28.1462C35.8747 28.1429 35.9079 28.1388 35.9409 28.134C35.9741 28.1291 36.0072 28.1234 36.0401 28.1168C36.0851 28.1079 36.1296 28.0976 36.1738 28.0859C36.218 28.074 36.2617 28.0607 36.3049 28.046C36.3483 28.0313 36.3911 28.0151 36.4334 27.9975C36.4757 27.9799 36.5173 27.961 36.5582 27.9407C36.5993 27.9204 36.6395 27.8988 36.679 27.876C36.7186 27.853 36.7574 27.8287 36.7953 27.803C36.8334 27.7775 36.8705 27.7508 36.9067 27.7228C36.9427 27.6948 36.9779 27.6657 37.0122 27.6356C37.0465 27.6052 37.0797 27.5738 37.1118 27.5413C37.1439 27.5088 37.1749 27.4752 37.2049 27.4407C37.2348 27.4061 37.2635 27.3706 37.2911 27.3342C37.3187 27.2977 37.3451 27.2604 37.3703 27.2221C37.3953 27.1839 37.4192 27.145 37.4417 27.1053C37.4641 27.0654 37.4853 27.0249 37.5052 26.9838C37.525 26.9426 37.5435 26.9009 37.5604 26.8585C37.5774 26.8162 37.5931 26.7732 37.6074 26.7298C37.6216 26.6863 37.6344 26.6424 37.6457 26.5982C37.6569 26.5539 37.6667 26.5094 37.675 26.4645C37.6833 26.4196 37.6902 26.3744 37.6955 26.3289C37.701 26.2836 37.7048 26.2381 37.707 26.1924C37.7093 26.1469 37.7102 26.1013 37.7096 26.0557C37.7088 26.0099 37.7065 25.9642 37.7028 25.9187C37.6992 25.8732 37.6939 25.8279 37.687 25.7827C37.6803 25.7375 37.6721 25.6926 37.6623 25.6481C37.6526 25.6033 37.6414 25.559 37.6287 25.5151C37.6162 25.4713 37.6021 25.4279 37.5865 25.3849C37.5709 25.3419 37.554 25.2995 37.5357 25.2575C37.5174 25.2158 37.4976 25.1747 37.4765 25.1342C37.4555 25.0935 37.4331 25.0536 37.4093 25.0146C37.3856 24.9756 37.3606 24.9374 37.3343 24.8999C37.308 24.8625 37.2805 24.8261 37.2519 24.7906C37.2232 24.7549 37.1933 24.7203 37.1623 24.6867C37.1313 24.6531 37.0993 24.6205 37.0662 24.5891C37.033 24.5575 36.9989 24.5271 36.9638 24.4979C36.9285 24.4686 36.8924 24.4406 36.8555 24.4137C36.8183 24.3869 36.7804 24.3614 36.7417 24.337C36.703 24.3126 36.6636 24.2895 36.6233 24.2678C36.583 24.246 36.5422 24.2257 36.5006 24.2068C36.459 24.1877 36.4168 24.1701 36.374 24.1538C36.3312 24.1375 36.288 24.1228 36.2443 24.1095C36.2004 24.096 36.1563 24.0841 36.1118 24.0736C36.0673 24.0631 36.0224 24.0541 35.9771 24.0466C35.932 24.0391 35.8867 24.0332 35.8411 24.0288C35.7956 24.0242 35.7501 24.0212 35.7043 24.0196C35.6586 24.0182 35.6128 24.0183 35.5671 24.0199C35.5214 24.0214 35.4757 24.0245 35.4301 24.029C35.3845 24.0335 35.3392 24.0396 35.2941 24.0471C35.2489 24.0547 35.2041 24.0638 35.1597 24.0743Z" fill="black"/>
<path d="M56.3046 27.9395C56.2716 27.9472 56.2384 27.954 56.205 27.9599C56.1718 27.9659 56.1383 27.971 56.1047 27.9754C56.0711 27.9798 56.0375 27.9834 56.0036 27.9862C55.9699 27.9889 55.9361 27.9907 55.9021 27.9918C55.8683 27.9929 55.8344 27.9932 55.8006 27.9928C55.7668 27.9921 55.7329 27.9907 55.6991 27.9886C55.6653 27.9864 55.6315 27.9833 55.5978 27.9794C55.5641 27.9755 55.5306 27.9708 55.4973 27.9653C55.4639 27.9599 55.4306 27.9536 55.3974 27.9466C55.3643 27.9394 55.3314 27.9315 55.2987 27.9229C55.266 27.9141 55.2335 27.9046 55.2012 27.8943C55.1689 27.8839 55.1369 27.8729 55.1051 27.8612C55.0734 27.8493 55.042 27.8366 55.0109 27.8232C54.9797 27.8099 54.9489 27.7958 54.9185 27.781C54.8881 27.7661 54.8581 27.7505 54.8283 27.7341C54.7987 27.7178 54.7695 27.7008 54.7406 27.6829C54.7118 27.6651 54.6835 27.6467 54.6556 27.6276C54.6275 27.6085 54.6001 27.5887 54.5731 27.5683C54.5462 27.5478 54.5198 27.5266 54.4939 27.5047C54.4679 27.483 54.4425 27.4606 54.4178 27.4376C54.3929 27.4146 54.3686 27.391 54.345 27.3668C54.3213 27.3427 54.2982 27.318 54.2756 27.2927C54.2532 27.2673 54.2314 27.2415 54.2101 27.215C54.1889 27.1888 54.1684 27.162 54.1485 27.1346C54.1286 27.1072 54.1094 27.0794 54.0909 27.0511C54.0723 27.0228 54.0544 26.994 54.0374 26.9648C54.0201 26.9357 54.0037 26.9061 53.988 26.8761C53.9724 26.8461 53.9574 26.8158 53.9432 26.7851C53.9291 26.7545 53.9157 26.7234 53.903 26.692C53.8903 26.6607 53.8783 26.6291 53.867 26.597C53.8559 26.5651 53.8456 26.533 53.836 26.5006C53.8264 26.4681 53.8177 26.4354 53.8097 26.4026C53.8017 26.3697 53.7945 26.3367 53.7881 26.3034C53.7818 26.2702 53.7763 26.2369 53.7716 26.2035C53.7668 26.17 53.7628 26.1364 53.7599 26.1026C53.7567 26.069 53.7545 26.0353 53.7531 26.0015C53.7515 25.9677 53.7509 25.9339 53.7512 25.9C53.7513 25.8662 53.7524 25.8324 53.7542 25.7986C53.7561 25.7649 53.7588 25.7312 53.7622 25.6976C53.7657 25.6639 53.77 25.6304 53.7751 25.5969C53.7803 25.5635 53.7863 25.5302 53.793 25.497C53.7999 25.4639 53.8075 25.431 53.8158 25.3983C53.8241 25.3654 53.8333 25.3329 53.8433 25.3007C53.8533 25.2683 53.864 25.2363 53.8755 25.2045C53.8871 25.1726 53.8994 25.1411 53.9124 25.11C53.9255 25.0788 53.9394 25.0479 53.954 25.0174C53.9685 24.9869 53.9839 24.9567 54 24.9268C54.016 24.8971 54.0328 24.8677 54.0503 24.8387C54.0677 24.8097 54.0859 24.7813 54.1048 24.7533C54.1236 24.7251 54.1432 24.6975 54.1636 24.6705C54.1838 24.6433 54.2046 24.6166 54.2261 24.5905C54.2477 24.5644 54.2698 24.5388 54.2926 24.5138C54.3153 24.4888 54.3387 24.4643 54.3628 24.4404C54.3868 24.4165 54.4113 24.3932 54.4364 24.3705C54.4614 24.3478 54.487 24.3258 54.5132 24.3044C54.5395 24.283 54.5662 24.2622 54.5933 24.242C54.6206 24.2218 54.6483 24.2023 54.6765 24.1836C54.7047 24.1647 54.7333 24.1465 54.7623 24.1292C54.7912 24.1118 54.8207 24.0951 54.8506 24.079C54.8805 24.063 54.9108 24.0478 54.9413 24.0332C54.9719 24.0189 55.0028 24.0052 55.0341 23.9922C55.0655 23.9791 55.097 23.9668 55.1288 23.9554C55.1608 23.944 55.193 23.9333 55.2254 23.9232C55.2577 23.9134 55.2902 23.9043 55.3231 23.896C55.3675 23.8848 55.4122 23.875 55.4573 23.8667C55.5023 23.8584 55.5475 23.8516 55.5931 23.8463C55.6386 23.841 55.6841 23.8372 55.7299 23.8348C55.7756 23.8325 55.8214 23.8317 55.8671 23.8325C55.913 23.8331 55.9587 23.8353 56.0043 23.839C56.0499 23.8428 56.0954 23.848 56.1408 23.8548C56.1861 23.8613 56.2312 23.8695 56.276 23.8792C56.3206 23.8888 56.3649 23.8999 56.409 23.9125C56.453 23.9251 56.4966 23.9392 56.5398 23.9547C56.5829 23.97 56.6254 23.9868 56.6674 24.0051C56.7094 24.0234 56.7508 24.043 56.7915 24.064C56.8321 24.0849 56.872 24.1072 56.9113 24.1308C56.9505 24.1544 56.9889 24.1793 57.0265 24.2054C57.0641 24.2315 57.1007 24.2588 57.1364 24.2873C57.1723 24.3159 57.2072 24.3456 57.241 24.3764C57.2748 24.4072 57.3076 24.4391 57.3392 24.4721C57.3709 24.5051 57.4014 24.5391 57.4308 24.5741C57.4603 24.609 57.4886 24.6449 57.5157 24.6818C57.5428 24.7187 57.5686 24.7563 57.5932 24.7948C57.6178 24.8334 57.6412 24.8727 57.6632 24.9128C57.6852 24.953 57.7058 24.9938 57.7253 25.0352C57.7445 25.0766 57.7624 25.1186 57.7788 25.1612C57.7954 25.2038 57.8106 25.247 57.8242 25.2906C57.838 25.3342 57.8503 25.3783 57.8611 25.4227C57.8717 25.4671 57.881 25.5118 57.8888 25.5568C57.8966 25.6019 57.903 25.6471 57.9078 25.6926C57.9127 25.7381 57.9161 25.7837 57.9179 25.8294C57.9197 25.875 57.92 25.9207 57.9189 25.9663C57.9176 26.012 57.915 26.0576 57.9109 26.1031C57.9067 26.1486 57.9009 26.1939 57.8937 26.2391C57.8865 26.2843 57.8778 26.3292 57.8677 26.3737C57.8575 26.4183 57.8459 26.4625 57.8329 26.5063C57.8199 26.55 57.8054 26.5933 57.7894 26.6362C57.7734 26.679 57.7561 26.7213 57.7375 26.7631C57.7187 26.8048 57.6986 26.8459 57.6771 26.8862C57.6556 26.9267 57.6329 26.9663 57.609 27.0051C57.5848 27.0441 57.5595 27.0821 57.5331 27.1193C57.5064 27.1566 57.4786 27.1929 57.4496 27.2284C57.4207 27.2637 57.3906 27.2981 57.3594 27.3316C57.3282 27.3651 57.2959 27.3974 57.2624 27.4287C57.229 27.46 57.1947 27.4902 57.1595 27.5192C57.1241 27.5483 57.0877 27.5762 57.0504 27.6027C57.0133 27.6295 56.9753 27.6549 56.9365 27.679C56.8975 27.703 56.8578 27.7259 56.8176 27.7474C56.7772 27.769 56.736 27.7892 56.6942 27.808C56.6525 27.8269 56.6102 27.8444 56.5673 27.8605C56.5246 27.8764 56.4812 27.8911 56.4374 27.9044C56.3935 27.9175 56.3493 27.9292 56.3046 27.9395Z" fill="#FBFAFD"/>
<path d="M36.0401 28.1169C36.0072 28.1234 35.9741 28.1291 35.9409 28.134C35.9079 28.1388 35.8747 28.1429 35.8413 28.1462C35.8079 28.1495 35.7745 28.152 35.741 28.1537C35.7074 28.1554 35.6739 28.1563 35.6404 28.1563C35.6069 28.1564 35.5734 28.1557 35.5401 28.1541C35.5065 28.1526 35.4731 28.1502 35.4397 28.1469C35.4064 28.1437 35.3731 28.1398 35.3399 28.1349C35.3067 28.1301 35.2736 28.1244 35.2407 28.118C35.2078 28.1118 35.1752 28.1046 35.1427 28.0964C35.1102 28.0885 35.0778 28.0797 35.0457 28.0702C35.0136 28.0606 34.9817 28.0503 34.9501 28.0392C34.9184 28.0281 34.8871 28.0163 34.8561 28.0038C34.8249 27.9911 34.7941 27.9778 34.7637 27.9637C34.7333 27.9496 34.7033 27.9348 34.6737 27.9191C34.644 27.9037 34.6147 27.8874 34.5858 27.8703C34.557 27.8535 34.5286 27.8358 34.5006 27.8173C34.4725 27.799 34.4449 27.7801 34.4178 27.7603C34.3907 27.7406 34.3641 27.7203 34.338 27.6994C34.3118 27.6784 34.2862 27.6568 34.2611 27.6346C34.2361 27.6124 34.2115 27.5896 34.1876 27.5661C34.1636 27.5427 34.1403 27.5187 34.1175 27.4941C34.0947 27.4698 34.0724 27.4447 34.0508 27.4191C34.0294 27.3934 34.0084 27.3673 33.9881 27.3408C33.9677 27.3142 33.9481 27.287 33.9291 27.2594C33.9101 27.2318 33.8919 27.2039 33.8743 27.1754C33.8566 27.1469 33.8397 27.1181 33.8234 27.0889C33.8072 27.0595 33.7918 27.0298 33.7771 26.9997C33.7622 26.9697 33.7481 26.9394 33.7348 26.9087C33.7215 26.8779 33.7089 26.8469 33.6972 26.8156C33.6854 26.7843 33.6744 26.7528 33.6641 26.7209C33.6539 26.689 33.6444 26.6569 33.6356 26.6247C33.6268 26.5923 33.6189 26.5598 33.6119 26.5271C33.6048 26.4944 33.5985 26.4616 33.5929 26.4286C33.5874 26.3956 33.5827 26.3625 33.5788 26.3292C33.5748 26.296 33.5717 26.2627 33.5694 26.2293C33.5672 26.196 33.5657 26.1626 33.5649 26.1291C33.5643 26.0957 33.5644 26.0622 33.5654 26.0287C33.5663 25.9953 33.5681 25.9618 33.5708 25.9283C33.5733 25.895 33.5766 25.8618 33.5809 25.8287C33.5851 25.7954 33.5901 25.7623 33.5959 25.7295C33.6017 25.6965 33.6083 25.6636 33.6156 25.6309C33.623 25.5983 33.6312 25.5658 33.6401 25.5336C33.6492 25.5014 33.659 25.4694 33.6695 25.4377C33.6799 25.4059 33.6912 25.3744 33.7033 25.3432C33.7154 25.3119 33.7282 25.281 33.7418 25.2505C33.7553 25.2199 33.7696 25.1896 33.7846 25.1598C33.7996 25.1297 33.8154 25.1002 33.8318 25.0711C33.8484 25.042 33.8657 25.0132 33.8835 24.9848C33.9014 24.9565 33.9199 24.9287 33.939 24.9013C33.9582 24.8739 33.9781 24.847 33.9987 24.8206C34.0192 24.794 34.0403 24.7681 34.0621 24.7427C34.0839 24.7173 34.1063 24.6923 34.1293 24.6679C34.1523 24.6437 34.1759 24.6199 34.2 24.5966C34.2243 24.5735 34.2491 24.5509 34.2743 24.5288C34.2995 24.5068 34.3253 24.4854 34.3516 24.4648C34.3779 24.444 34.4047 24.4239 34.4319 24.4045C34.4592 24.385 34.4869 24.3661 34.5151 24.348C34.5433 24.3299 34.5719 24.3124 34.6009 24.2957C34.6299 24.279 34.6593 24.2629 34.6892 24.2476C34.719 24.2325 34.7492 24.2179 34.7797 24.204C34.8102 24.1901 34.8411 24.1769 34.8723 24.1646C34.9035 24.1524 34.9349 24.1408 34.9665 24.1299C34.9983 24.1191 35.0303 24.1091 35.0624 24.0999C35.0946 24.0905 35.1271 24.082 35.1596 24.0743C35.2041 24.0638 35.2489 24.0547 35.2941 24.0471C35.3392 24.0396 35.3845 24.0336 35.4301 24.029C35.4757 24.0245 35.5214 24.0214 35.5671 24.0199C35.6128 24.0183 35.6586 24.0182 35.7043 24.0196C35.7501 24.0212 35.7956 24.0243 35.8411 24.0288C35.8867 24.0332 35.932 24.0391 35.9771 24.0466C36.0224 24.0541 36.0673 24.0631 36.1118 24.0736C36.1562 24.0841 36.2004 24.096 36.2443 24.1095C36.288 24.1228 36.3312 24.1375 36.374 24.1538C36.4168 24.1701 36.459 24.1877 36.5006 24.2068C36.5422 24.2257 36.583 24.2461 36.6233 24.2678C36.6636 24.2895 36.703 24.3126 36.7417 24.337C36.7804 24.3614 36.8183 24.387 36.8554 24.4139C36.8924 24.4406 36.9285 24.4686 36.9638 24.4979C36.9989 24.5271 37.033 24.5575 37.0662 24.5891C37.0993 24.6205 37.1313 24.6531 37.1623 24.6867C37.1933 24.7203 37.2232 24.7549 37.2518 24.7906C37.2805 24.8261 37.308 24.8625 37.3343 24.8999C37.3606 24.9374 37.3856 24.9756 37.4093 25.0146C37.4331 25.0537 37.4555 25.0935 37.4765 25.1342C37.4976 25.1747 37.5174 25.2158 37.5357 25.2576C37.554 25.2995 37.5709 25.3419 37.5864 25.3849C37.6021 25.4279 37.6162 25.4713 37.6287 25.5151C37.6414 25.559 37.6526 25.6033 37.6623 25.6481C37.6721 25.6926 37.6803 25.7375 37.687 25.7827C37.6939 25.8279 37.6992 25.8732 37.7028 25.9187C37.7065 25.9642 37.7088 26.0099 37.7096 26.0557C37.7102 26.1014 37.7093 26.1469 37.707 26.1924C37.7048 26.2381 37.701 26.2836 37.6955 26.3289C37.6901 26.3744 37.6833 26.4196 37.675 26.4645C37.6667 26.5094 37.6569 26.5539 37.6457 26.5982C37.6344 26.6424 37.6216 26.6863 37.6074 26.7298C37.5931 26.7732 37.5774 26.8162 37.5604 26.8585C37.5434 26.9009 37.525 26.9427 37.5051 26.9838C37.4853 27.0249 37.4641 27.0654 37.4417 27.1053C37.4191 27.145 37.3953 27.1839 37.3703 27.2221C37.3451 27.2604 37.3187 27.2978 37.2911 27.3342C37.2635 27.3706 37.2348 27.4061 37.2049 27.4407C37.1749 27.4752 37.1439 27.5088 37.1118 27.5413C37.0797 27.5738 37.0465 27.6052 37.0122 27.6356C36.9779 27.6658 36.9427 27.6948 36.9067 27.7228C36.8705 27.7508 36.8334 27.7775 36.7953 27.803C36.7574 27.8287 36.7186 27.853 36.679 27.876C36.6395 27.8988 36.5993 27.9204 36.5582 27.9407C36.5173 27.961 36.4757 27.98 36.4334 27.9975C36.3911 28.0151 36.3483 28.0313 36.3049 28.046C36.2617 28.0607 36.218 28.074 36.1738 28.0859C36.1296 28.0976 36.0851 28.1079 36.0401 28.1169Z" fill="#FBFAFD"/>
<path d="M22.7901 29.2054C22.6776 29.204 22.5648 29.2002 22.4535 29.1814C22.178 29.1348 21.9442 28.9969 21.7858 28.764C21.673 28.5979 21.6366 28.399 21.6799 28.2032C21.7476 27.8969 21.9599 27.7317 22.2055 27.5687C22.5754 27.5434 22.9531 27.557 23.3241 27.5554C23.3076 28.0653 23.419 28.5937 23.2695 29.0848C23.1118 29.2359 22.9973 29.1995 22.7901 29.2054Z" fill="#A569DC"/>
<path d="M43.6615 34.3925C44.2047 35.3555 45.0783 36.1895 45.9663 36.8324C46.2013 37.1666 46.4933 37.5975 46.425 38.0203C46.3695 38.3637 46.1108 38.7439 46.0831 39.0551C45.772 39.7123 45.377 40.3533 45.0262 40.9918C44.5983 41.7704 44.1998 42.6099 43.6744 43.3264C43.6638 43.3139 43.653 43.3018 43.6424 43.2891L43.5905 43.2258C43.0764 42.6094 42.6967 41.7948 42.3087 41.0914L40.3112 37.4148C41.6945 36.6513 42.7862 35.7122 43.6615 34.3925Z" fill="url(#paint0_linear_1_5)"/>
<path d="M45.9663 36.8324C46.3202 37.036 46.6719 37.2445 47.03 37.4406C46.8745 37.7225 46.2758 38.9447 46.0831 39.0551C46.1108 38.7439 46.3695 38.3637 46.425 38.0204C46.4934 37.5975 46.2013 37.1666 45.9663 36.8324Z" fill="#FBFAFD"/>
<path d="M62.2346 49.1299C62.1807 49.1818 62.124 49.2305 62.0645 49.276C61.4937 49.7123 60.7113 50.0127 60.0463 50.2763C56.0856 51.8473 51.7132 52.3234 47.4882 52.492C46.4985 52.5317 45.4604 52.6194 44.4763 52.4806C44.9592 52.353 45.5149 52.3537 46.0135 52.2861C46.7363 52.1886 47.4511 52.0387 48.164 51.8872C49.0891 51.6948 50.007 51.4724 50.9176 51.2199C51.8281 50.9674 52.7293 50.6853 53.6215 50.3737C54.5134 50.062 55.3942 49.7216 56.2637 49.3525C57.1334 48.9832 57.99 48.5858 58.8334 48.1603C59.5501 47.7949 60.4131 47.3802 61.0071 46.8321C61.0184 46.8215 61.0294 46.8107 61.0405 46.8C61.5854 47.3675 61.9174 48.407 62.2346 49.1299Z" fill="#9148D4"/>
<path d="M29.7351 78.957C27.2289 76.6538 25.0951 74.0455 23.6483 70.9498C20.7804 64.8135 21.6501 58.3225 23.8955 52.1595C24.5551 52.5054 25.1108 53.1558 25.6193 53.6889C28.1168 56.3069 30.0955 59.4007 31.1724 62.8649C32.4814 67.0756 32.2688 71.5662 30.9156 75.7375C30.7506 76.246 30.5857 76.757 30.393 77.2557C30.2048 77.743 29.7753 78.4528 29.7351 78.957Z" fill="#9148D4"/>
<path d="M57.6548 78.9096C57.4687 78.6596 57.3281 78.3451 57.197 78.0615C54.8638 73.0165 54.5449 67.0142 56.4783 61.8015C57.5986 58.7806 59.4206 56.0908 61.6199 53.748C62.1178 53.2175 62.7264 52.5284 63.3935 52.223C63.8007 53.3629 64.2225 54.5032 64.5362 55.6729C65.9084 60.7911 65.8722 66.2223 63.5681 71.0729C63.3889 71.4435 63.2007 71.8094 63.0037 72.1708C62.8065 72.5323 62.6005 72.8886 62.3859 73.2398C62.1713 73.5912 61.9482 73.937 61.7165 74.2774C61.485 74.618 61.2451 74.9526 60.997 75.2813C60.749 75.6099 60.4932 75.9324 60.2294 76.2485C59.9654 76.5647 59.6939 76.8742 59.4149 77.1771C59.1359 77.4801 58.8497 77.776 58.5561 78.0648C58.2626 78.3538 57.9621 78.6354 57.6548 78.9096Z" fill="#9148D4"/>
<path d="M7.38463 77.1339C9.22795 77.9855 11.0263 78.9528 12.8365 79.8731C13.6283 80.2756 14.4467 80.7721 15.2819 81.0662C16.0853 81.3493 17.122 81.2949 17.9721 81.3908L21.9305 81.817C22.7659 81.9082 23.6131 82.033 24.4513 82.0776C26.4941 82.1859 28.8866 82.1224 30.9539 82.0898C30.8731 83.1014 30.9064 84.123 30.9027 85.1374C28.5353 85.1043 26.2864 85.0161 23.9174 85.2282C25.1574 86.0092 26.3402 86.9277 27.5296 87.7861C28.7113 88.6389 30.1778 89.5236 31.1567 90.5818C32.3515 91.8737 33.3741 93.3417 34.4792 94.7107C34.8244 95.1383 35.1984 95.7239 35.6428 96.0492C35.5659 96.0544 35.4017 96.0856 35.3317 96.0699C35.1319 96.0251 34.4512 95.396 34.2609 95.2431C33.4239 94.5718 32.5249 93.9724 31.6522 93.3485C30.816 92.7511 29.9959 92.1246 29.1465 91.5465C27.4263 90.3757 25.6593 89.2609 23.9195 88.118C22.6292 87.2701 21.2433 86.4661 20.0248 85.5223C19.0238 85.6731 17.2085 85.9766 16.2372 85.8619C15.3463 85.7566 13.5008 84.9477 12.5704 84.6073C10.8486 83.9781 9.10717 83.3983 7.40193 82.7256C7.39655 80.8659 7.30258 78.9908 7.38463 77.1339Z" fill="#61239B"/>
<path d="M30.9539 82.0898C31.0194 81.897 31.0944 81.7 31.2171 81.5351C31.4358 81.241 31.8127 81.1995 32.1471 81.1429C32.5656 81.2105 32.9516 81.2687 33.2186 81.6392C33.3241 81.7858 33.3861 81.9664 33.4505 82.1336C33.4735 83.1598 33.4455 84.1903 33.4796 85.2148C33.5026 85.8615 33.5177 86.483 33.0437 86.9894C32.8247 87.2232 32.519 87.3862 32.1938 87.389C31.8856 87.3916 31.5874 87.2467 31.3733 87.0295C30.8536 86.5015 30.898 85.8218 30.9027 85.1374C30.9064 84.123 30.8731 83.1014 30.9539 82.0898Z" fill="black"/>
<path d="M34.3622 82.1683C34.3838 82.0827 34.4066 81.9971 34.4376 81.9141C34.5609 81.5836 34.8084 81.3505 35.1362 81.2222C35.4628 81.0941 35.8453 81.1127 36.1616 81.2611C36.5679 81.4518 36.7222 81.7321 36.8649 82.1315C36.8857 83.1871 36.8894 84.2427 36.8759 85.2983C36.902 85.9072 36.9391 86.4776 36.4868 86.9574C36.2497 87.2091 35.913 87.363 35.5652 87.3576C35.2403 87.3524 34.9416 87.2103 34.724 86.971C34.4658 86.6877 34.3626 86.3767 34.3452 85.9984C34.3857 84.7234 34.3293 83.4449 34.3622 82.1683Z" fill="black"/>
<path d="M37.7754 82.1794C37.8962 81.7968 38.0148 81.517 38.3873 81.3092C38.4261 81.2875 38.466 81.2677 38.5069 81.2499C38.5477 81.2322 38.5894 81.2166 38.6319 81.203C38.6743 81.1894 38.7173 81.1779 38.7609 81.1685C38.8046 81.1593 38.8486 81.1523 38.8929 81.1474C38.9371 81.1424 38.9815 81.1397 39.0261 81.1392C39.0708 81.1389 39.1153 81.1407 39.1596 81.1446C39.2039 81.1487 39.248 81.1549 39.2919 81.1634C39.3356 81.1716 39.3788 81.1822 39.4216 81.195C39.4633 81.2072 39.5041 81.2215 39.544 81.2379C39.5841 81.2544 39.6233 81.2729 39.6615 81.2935C39.6996 81.3142 39.7365 81.3368 39.7722 81.3613C39.8079 81.3857 39.8422 81.412 39.8751 81.4401C39.9082 81.4683 39.9396 81.498 39.9693 81.5295C39.9991 81.5609 40.0271 81.5938 40.0532 81.6282C40.0795 81.6628 40.104 81.6985 40.1265 81.7354C40.1489 81.7725 40.1694 81.8105 40.1879 81.8496C40.2353 81.9498 40.2642 82.0553 40.2898 82.1627C40.3025 83.2343 40.3072 84.3059 40.3039 85.3776C40.3042 85.7838 40.373 86.5027 40.069 86.8118C40.0368 86.8444 39.9996 86.8726 39.9573 86.8902C39.9252 86.9366 39.8918 86.9826 39.853 87.0238C39.6613 87.2284 39.2599 87.3979 38.9857 87.3864C38.6742 87.3735 38.3823 87.1873 38.173 86.9664C37.7213 86.4896 37.7298 85.941 37.7526 85.3265C37.8266 84.2896 37.7493 83.2222 37.7754 82.1794Z" fill="black"/>
<path d="M47.0354 82.1914C47.0667 82.0654 47.0979 81.9348 47.151 81.8161C47.2793 81.5307 47.5411 81.325 47.8313 81.2185C47.8732 81.203 47.9158 81.1897 47.9591 81.1786C48.0023 81.1675 48.046 81.1586 48.0902 81.1519C48.1344 81.1453 48.1788 81.1409 48.2234 81.1387C48.2681 81.1366 48.3127 81.1367 48.3574 81.1392C48.402 81.1417 48.4463 81.1465 48.4904 81.1535C48.5345 81.1604 48.5782 81.1696 48.6215 81.1812C48.6646 81.1926 48.707 81.2062 48.7488 81.222C48.7907 81.2378 48.8315 81.2557 48.8715 81.2757C49.2592 81.4734 49.4194 81.7659 49.5367 82.162C49.5146 83.2829 49.4549 84.4915 49.5381 85.6075C49.5536 86.1492 49.5287 86.5703 49.1222 86.9784C48.8908 87.2108 48.57 87.3928 48.2324 87.3757C47.9487 87.3616 47.5993 87.1899 47.4158 86.9741C47.3827 86.9352 47.3719 86.916 47.3411 86.8707C47.3082 86.8508 47.2911 86.8433 47.2647 86.8177C46.98 86.5409 47.0241 85.8657 47.0168 85.4895C46.9882 84.3951 46.9682 83.2839 47.0354 82.1914Z" fill="black"/>
<path d="M50.4263 82.205C50.4554 82.1074 50.4843 82.0077 50.5238 81.9137C50.6629 81.5823 50.9221 81.3444 51.2583 81.2175C51.2983 81.2025 51.3389 81.1896 51.3803 81.1786C51.4216 81.1677 51.4634 81.1588 51.5055 81.1521C51.5478 81.1454 51.5903 81.1408 51.6329 81.1383C51.6757 81.1358 51.7183 81.1354 51.7609 81.1371C51.8037 81.1388 51.8462 81.1427 51.8885 81.1486C51.9308 81.1547 51.9727 81.1628 52.0142 81.173C52.0558 81.1831 52.0966 81.1953 52.1369 81.2096C52.1772 81.224 52.2166 81.2402 52.2553 81.2584C52.6618 81.4514 52.8242 81.7453 52.9591 82.1487C53.0223 83.2902 52.9703 84.439 52.9847 85.5817C52.9983 86.0913 52.9654 86.5179 52.6221 86.9296C52.5961 86.9613 52.5685 86.9916 52.5394 87.0206C52.5103 87.0495 52.4797 87.0769 52.4478 87.1029C52.416 87.1287 52.3828 87.1529 52.3484 87.1754C52.3141 87.1979 52.2787 87.2186 52.2422 87.2375C52.2057 87.2564 52.1683 87.2734 52.1301 87.2884C52.0919 87.3036 52.053 87.3167 52.0135 87.3278C51.9739 87.3391 51.9339 87.3482 51.8935 87.3553C51.8531 87.3625 51.8123 87.3675 51.7713 87.3705C51.436 87.3926 51.1098 87.2521 50.8744 87.0175C50.4505 86.5953 50.4399 86.0998 50.4294 85.5423L50.4263 82.205Z" fill="black"/>
<path d="M54.2244 81.4436C54.5734 81.2457 54.8852 81.177 55.2818 81.1315C55.6124 81.1735 55.8911 81.2569 56.1089 81.5297C56.2555 81.7134 56.3244 81.9181 56.3935 82.1381C56.3965 83.3136 56.3112 84.5586 56.4099 85.7254C56.4346 86.1729 56.3775 86.5552 56.0807 86.9099C56.0533 86.9429 56.0242 86.9744 55.9935 87.0044C55.9628 87.0343 55.9306 87.0625 55.897 87.0891C55.8633 87.1158 55.8283 87.1406 55.7919 87.1634C55.7557 87.1864 55.7184 87.2074 55.6798 87.2265C55.6413 87.2456 55.6019 87.2625 55.5617 87.2774C55.5214 87.2924 55.4805 87.3052 55.439 87.3159C55.3973 87.3265 55.3553 87.3349 55.3128 87.3412C55.2704 87.3474 55.2277 87.3515 55.1848 87.3534C55.1418 87.3553 55.099 87.3549 55.0562 87.3522C55.0133 87.3496 54.9707 87.3446 54.9284 87.3374C54.8859 87.3304 54.844 87.3211 54.8027 87.3095C54.7613 87.2978 54.7208 87.284 54.681 87.2682C54.641 87.2523 54.6021 87.2343 54.5642 87.2143C54.5261 87.1943 54.4893 87.1723 54.4538 87.1484C54.418 87.1246 54.3837 87.0989 54.3508 87.0712C54.3179 87.0437 54.2866 87.0146 54.2568 86.9837C53.8612 86.5785 53.8614 86.1253 53.852 85.5953C53.9175 84.4737 53.8522 83.3235 53.8713 82.197C53.9514 81.9064 54.0623 81.6972 54.2244 81.4436Z" fill="black"/>
<path d="M56.3934 82.1381C58.5669 82.2186 60.7433 82.196 62.9179 82.2024C64.8724 82.208 66.8356 82.261 68.7857 82.1125C70.9984 81.9444 73.2217 81.7333 75.4295 81.5119C76.864 81.3679 78.3749 81.1469 79.8172 81.1603L79.7645 81.1089L79.8426 81.1648L79.7622 81.1929L79.7302 81.1774C79.7166 81.1875 79.7037 81.1985 79.6893 81.2079C79.2382 81.4985 78.5133 81.6664 78.0018 81.8607C76.8756 82.2935 75.7522 82.7332 74.6316 83.1799L69.9847 84.9693C69.2187 85.2634 68.3364 85.716 67.5304 85.853C66.7207 85.9905 65.7768 85.8873 64.9561 85.8669L59.1685 85.7454C58.2923 85.7275 57.2737 85.6112 56.4099 85.7254C56.3112 84.5586 56.3965 83.3136 56.3934 82.1381Z" fill="#61239B"/>
<path d="M33.4505 82.1337C33.7531 82.1442 34.0607 82.1435 34.3622 82.1684C34.3293 83.445 34.3857 84.7235 34.3452 85.9984C34.295 85.7798 34.3246 85.4761 34.3187 85.2472C34.0384 85.2582 33.759 85.2338 33.4796 85.2148C33.4455 84.1904 33.4735 83.1598 33.4505 82.1337Z" fill="#61239B"/>
<path d="M36.8649 82.1315C37.1649 82.144 37.4786 82.1395 37.7754 82.1794C37.7493 83.2222 37.8266 84.2895 37.7526 85.3265L36.8759 85.2983C36.8894 84.2427 36.8857 83.1871 36.8649 82.1315Z" fill="#61239B"/>
<path d="M49.5367 82.162C49.8328 82.1728 50.1314 82.1764 50.4263 82.205L50.4294 85.5423C50.1692 85.5516 49.7757 85.5179 49.5381 85.6075C49.4549 84.4915 49.5146 83.2829 49.5367 82.162Z" fill="#61239B"/>
<path d="M52.9591 82.1487C53.2265 82.239 53.5874 82.1982 53.8712 82.197C53.8522 83.3235 53.9175 84.4737 53.852 85.5953C53.5608 85.6082 53.2756 85.5978 52.9847 85.5817C52.9704 84.439 53.0223 83.2902 52.9591 82.1487Z" fill="#61239B"/>
<path d="M40.2898 82.1627C41.7286 82.1287 43.1711 82.1503 44.6103 82.1533C45.3948 82.1552 46.2612 82.0888 47.0354 82.1913C46.9682 83.2838 46.9882 84.3951 47.0169 85.4894C44.7797 85.492 42.5411 85.3844 40.3039 85.3776C40.3072 84.3059 40.3025 83.2343 40.2898 82.1627Z" fill="#61239B"/>
<path d="M40.3039 85.3776C42.5411 85.3844 44.7797 85.492 47.0169 85.4894C47.0241 85.8656 46.98 86.5409 47.2648 86.8176C47.2911 86.8432 47.3082 86.8507 47.3411 86.8707C46.1139 87.8079 44.8133 89.0263 44.1918 90.4617C43.9761 90.9599 43.926 91.527 43.6661 92.0069C43.6403 92.0111 43.614 92.0261 43.5884 92.0198C43.5832 92.0186 43.5223 91.8063 43.4979 91.7294C43.3555 91.2819 43.226 90.8053 43.0237 90.3817C42.4812 89.2456 41.073 87.5337 39.9961 86.9115C39.9834 86.9042 39.9703 86.8972 39.9573 86.8901C39.9996 86.8725 40.0368 86.8444 40.0689 86.8118C40.373 86.5027 40.3042 85.7838 40.3039 85.3776Z" fill="#A569DC"/>
<path d="M28.6042 105.446C28.2087 104.542 28.3558 101.624 28.6089 100.676C29.1465 98.6611 30.593 97.1523 32.6116 96.5683C33.032 96.4466 33.7726 96.429 34.1194 96.208C34.1408 96.1944 34.1615 96.1797 34.1824 96.1653C34.432 96.2791 34.7501 96.1874 35.0178 96.2183C35.6543 96.2918 35.4031 97.1239 35.6877 97.4459C35.7025 97.4624 35.7182 97.4778 35.7335 97.494L35.6536 97.4237L35.6968 97.4914L35.7379 97.4516L35.6848 97.3911L35.7337 97.4713L35.791 97.453L35.7488 97.3852C35.7913 97.0099 35.7849 96.6248 35.7939 96.2474C36.0208 96.3044 36.3367 96.2538 36.5716 96.2451C37.5298 96.209 38.4086 96.2167 39.3112 96.5875C40.6197 97.1253 41.3677 98.1296 41.8935 99.4065C42.2523 100.278 42.6793 101.937 42.3003 102.849C41.8463 102.597 40.8676 102.715 40.3354 102.647C39.6843 102.564 39.0196 102.399 38.4211 102.127C36.9363 101.45 36.3987 100.437 35.8716 98.9951L35.8345 99.0146L35.8155 99.4597C35.7934 99.854 35.7236 100.26 35.6249 100.642C35.2248 102.188 34.252 103.389 32.8694 104.182C32.0907 104.628 29.3744 105.65 28.6042 105.446Z" fill="#A569DC"/>
<defs>
<linearGradient id="paint0_linear_1_5" x1="41.7761" y1="40.3577" x2="45.5581" y2="36.8745" gradientUnits="userSpaceOnUse">
<stop stop-color="#FFFFFE" stop-opacity="0.592157"/>
<stop offset="1" stop-color="#FFFFFE" stop-opacity="0.682353"/>
</linearGradient>
</defs>
</svg>
