<svg width="53" height="40" viewBox="0 0 53 40" fill="none" xmlns="http://www.w3.org/2000/svg">
<path d="M26.2416 40.0008C26.1909 40.0008 26.1557 39.9917 26.1083 39.9725C25.8478 39.8668 22.1699 35.5021 21.747 34.9388C21.6217 34.7719 21.508 34.5975 21.4396 34.4022C21.5284 34.0477 22.6794 32.9889 23.0026 32.5479C23.5706 31.773 24.0774 30.8851 24.4717 30.0203C24.8737 29.139 25.1967 28.1926 25.4456 27.2636C25.5876 26.7332 25.6774 26.155 25.8749 25.6442C25.9191 25.5299 25.9795 25.4691 26.0796 25.3947C26.5858 25.4397 26.5406 25.6884 26.6215 26.0817C27.1062 28.4336 28.2103 31.1569 29.7604 33.0524C30.0574 33.4157 30.4282 33.7325 30.749 34.0779C30.8567 34.1942 30.9564 34.317 30.9308 34.4799C30.8853 34.7708 26.7239 39.635 26.2416 40.0008Z" fill="#9148D4"/>
<path d="M40.2784 28.8805C40.0136 28.9392 39.74 28.9899 39.4685 29.0101C38.2751 29.099 37.0783 28.7837 36.1658 28.0382C35.1991 27.2485 34.6399 26.2922 34.5468 25.0804C34.4659 24.0294 34.7291 22.7801 35.4712 21.9699C36.366 20.9929 37.4221 20.478 38.7876 20.3846C38.8509 20.3827 38.8974 20.3924 38.9594 20.4037C39.0612 20.666 38.4145 21.611 38.9336 22.798C39.2597 23.5438 39.8634 24.1575 40.6626 24.459C41.7214 24.8584 42.6722 24.5752 43.6601 24.1757C43.8304 25.0828 43.5871 26.041 43.1113 26.8349C42.4885 27.8744 41.4849 28.5684 40.2784 28.8805Z" fill="#9148D4"/>
<path d="M14.2656 28.9324C14.0201 28.9718 13.776 29.0071 13.5271 29.0207C12.3133 29.0867 11.1408 28.7162 10.2358 27.9417C9.34497 27.1791 8.75939 26.1121 8.70871 24.9681C8.65164 23.6794 9.15004 22.4922 10.0679 21.5525C10.7833 20.8202 11.9597 20.4336 12.9982 20.3904L13.1249 20.3779C13.2105 20.4998 12.9047 21.6482 12.9198 21.9416C12.9444 22.4164 13.1826 22.9575 13.4473 23.3563C14.1629 24.4351 15.7216 24.9297 16.9952 24.5287C17.2196 24.458 17.5403 24.152 17.779 24.2021C17.8099 24.2356 17.8416 24.2592 17.855 24.3025C18.0222 24.8468 17.7149 26.1614 17.4274 26.6455C16.6389 27.9738 15.8026 28.5244 14.2656 28.9324Z" fill="#9148D4"/>
<path d="M39.4002 35.9205C39.2065 35.9251 39.0127 35.9253 38.8188 35.9209C38.625 35.9165 38.4314 35.9076 38.2381 35.8943C38.0447 35.8809 37.8519 35.863 37.6596 35.8406C37.4671 35.8183 37.2754 35.7915 37.0843 35.7603C36.8933 35.729 36.7032 35.6933 36.514 35.6532C36.3248 35.6131 36.1368 35.5687 35.95 35.5199C35.7631 35.4711 35.5776 35.4179 35.3935 35.3605C35.2094 35.303 35.0268 35.2413 34.8459 35.1754C34.665 35.1094 34.4858 35.0393 34.3086 34.965C34.1313 34.8908 33.956 34.8124 33.7828 34.73C33.6096 34.6477 33.4386 34.5613 33.2698 34.4709C33.1011 34.3806 32.9348 34.2864 32.7709 34.1883C32.6071 34.0901 32.4459 33.9883 32.2873 33.8828C32.1287 33.7772 31.9729 33.668 31.8199 33.5551C31.667 33.4423 31.5171 33.326 31.3702 33.2063C31.2233 33.0864 31.0796 32.9632 30.939 32.8368C30.7985 32.7103 30.6614 32.5806 30.5276 32.4478C30.3938 32.3149 30.2635 32.1791 30.1367 32.0402C30.0099 31.9013 29.8868 31.7595 29.7674 31.615C29.648 31.4703 29.5324 31.323 29.4205 31.173C29.3088 31.0229 29.201 30.8704 29.0971 30.7155C28.9932 30.5604 28.8934 30.403 28.7977 30.2434C28.7019 30.0838 28.6104 29.922 28.523 29.7581C28.4357 29.5942 28.3527 29.4283 28.2738 29.2605C28.1951 29.0927 28.1208 28.9232 28.0509 28.752C27.9809 28.5808 27.9154 28.4081 27.8544 28.2339C27.7933 28.0596 27.7368 27.884 27.6849 27.7071C27.633 27.5302 27.5857 27.3522 27.543 27.1731C27.5003 26.994 27.4623 26.814 27.4289 26.6331C27.3955 26.4523 27.3669 26.2708 27.3429 26.0886C27.3189 25.9064 27.2997 25.7237 27.2853 25.5406C27.2707 25.3575 27.261 25.1742 27.256 24.9907C27.251 24.8072 27.2507 24.6236 27.2552 24.4401C27.2597 24.2565 27.269 24.0732 27.283 23.89C27.2971 23.7069 27.3158 23.5242 27.3393 23.342C27.3627 23.1597 27.3909 22.9781 27.4238 22.7972C27.4567 22.6162 27.4943 22.4362 27.5364 22.257C27.5787 22.0777 27.6255 21.8996 27.677 21.7226C27.7284 21.5456 27.7844 21.3699 27.845 21.1955C27.9055 21.0211 27.9706 20.8482 28.0401 20.6768C28.1096 20.5054 28.1835 20.3357 28.2619 20.1677C28.3402 19.9998 28.4228 19.8338 28.5096 19.6696C28.5966 19.5055 28.6877 19.3435 28.783 19.1837C28.8783 19.0238 28.9776 18.8662 29.0811 18.711C29.1846 18.5557 29.292 18.4029 29.4033 18.2527C29.5148 18.1024 29.63 17.9549 29.7491 17.81C29.8681 17.665 29.9907 17.5229 30.1171 17.3837C30.2436 17.2445 30.3735 17.1084 30.5069 16.9752C30.6404 16.842 30.7773 16.712 30.9175 16.5852C31.0576 16.4584 31.201 16.3349 31.3476 16.2148C31.4941 16.0946 31.6437 15.978 31.7964 15.8649C31.949 15.7516 32.1045 15.642 32.2629 15.536C32.4212 15.4301 32.5821 15.3279 32.7457 15.2294C32.9093 15.131 33.0754 15.0364 33.2438 14.9455C33.4124 14.8548 33.5831 14.7681 33.7561 14.6852C33.9292 14.6024 34.1042 14.5237 34.2813 14.449C34.4584 14.3742 34.6373 14.3037 34.818 14.2373C34.9987 14.171 35.1811 14.1089 35.3651 14.051C35.5491 13.9931 35.7344 13.9395 35.9212 13.8902C36.1079 13.841 36.2958 13.7961 36.4849 13.7555C36.6739 13.7149 36.8639 13.6788 37.0548 13.6471C37.2458 13.6154 37.4375 13.5882 37.6298 13.5654C37.8221 13.5426 38.0149 13.5242 38.2083 13.5104C38.4016 13.4965 38.5951 13.4872 38.7889 13.4824C38.9828 13.4775 39.1768 13.4772 39.3707 13.4813C39.5647 13.4856 39.7584 13.4943 39.9518 13.5074C40.1453 13.5206 40.3384 13.5383 40.5309 13.5605C40.7235 13.5826 40.9154 13.6092 41.1066 13.6403C41.2978 13.6714 41.4881 13.707 41.6773 13.7469C41.8667 13.7868 42.0549 13.8311 42.242 13.8799C42.4291 13.9286 42.6148 13.9816 42.7991 14.0389C42.9834 14.0962 43.1661 14.1578 43.3471 14.2237C43.5283 14.2895 43.7076 14.3595 43.8851 14.4338C44.0626 14.5079 44.238 14.5862 44.4115 14.6685C44.5849 14.7508 44.7561 14.8372 44.9251 14.9275C45.094 15.0178 45.2605 15.112 45.4245 15.21C45.5885 15.308 45.75 15.4098 45.9088 15.5154C46.0676 15.6209 46.2235 15.7301 46.3766 15.8429C46.5297 15.9558 46.6799 16.0721 46.827 16.1918C46.9741 16.3116 47.118 16.4347 47.2587 16.5612C47.3993 16.6877 47.5367 16.8174 47.6707 16.9503C47.8047 17.0832 47.9351 17.2191 48.062 17.3581C48.189 17.497 48.3123 17.6387 48.4317 17.7834C48.5513 17.9281 48.6671 18.0755 48.7791 18.2257C48.891 18.3757 48.999 18.5283 49.1031 18.6833C49.2071 18.8384 49.307 18.9958 49.4029 19.1556C49.4987 19.3153 49.5903 19.4771 49.6778 19.6411C49.7653 19.8051 49.8484 19.971 49.9273 20.1389C50.0062 20.3068 50.0807 20.4765 50.1507 20.6478C50.2208 20.8191 50.2864 20.992 50.3475 21.1664C50.4085 21.3408 50.4651 21.5165 50.5171 21.6935C50.5691 21.8705 50.6165 22.0486 50.6593 22.2278C50.702 22.407 50.7401 22.5871 50.7735 22.7681C50.8069 22.9491 50.8356 23.1307 50.8596 23.3131C50.8836 23.4954 50.9029 23.6782 50.9174 23.8614C50.9319 24.0446 50.9417 24.2281 50.9467 24.4117C50.9517 24.5954 50.9519 24.779 50.9475 24.9628C50.9429 25.1465 50.9336 25.33 50.9196 25.5132C50.9056 25.6965 50.8868 25.8793 50.8632 26.0617C50.8397 26.2441 50.8114 26.4258 50.7785 26.6068C50.7456 26.7879 50.708 26.968 50.6658 27.1473C50.6234 27.3267 50.5765 27.505 50.525 27.6821C50.4735 27.8592 50.4174 28.035 50.3568 28.2096C50.2961 28.3841 50.231 28.5571 50.1614 28.7286C50.0917 28.9001 50.0177 29.0699 49.9393 29.238C49.8608 29.406 49.7782 29.5722 49.6912 29.7364C49.6041 29.9006 49.5129 30.0627 49.4174 30.2226C49.322 30.3826 49.2225 30.5402 49.1189 30.6955C49.0152 30.8508 48.9076 31.0037 48.7961 31.1541C48.6846 31.3044 48.5692 31.452 48.45 31.5969C48.3308 31.7419 48.2079 31.884 48.0814 32.0233C47.9548 32.1625 47.8247 32.2987 47.691 32.4319C47.5574 32.5652 47.4204 32.6952 47.28 32.822C47.1397 32.9488 46.9962 33.0722 46.8494 33.1924C46.7026 33.3125 46.5528 33.4292 46.4 33.5424C46.2471 33.6556 46.0914 33.7651 45.9329 33.871C45.7744 33.9769 45.6133 34.0791 45.4495 34.1776C45.2857 34.2761 45.1194 34.3706 44.9508 34.4613C44.782 34.552 44.611 34.6387 44.4378 34.7215C44.2646 34.8043 44.0893 34.8829 43.9121 34.9575C43.7348 35.0321 43.5557 35.1025 43.3747 35.1687C43.1938 35.235 43.0113 35.2971 42.8272 35.3549C42.643 35.4126 42.4574 35.466 42.2705 35.5152C42.0836 35.5644 41.8955 35.6091 41.7062 35.6496C41.5169 35.6899 41.3268 35.7258 41.1357 35.7574C40.9446 35.7889 40.7527 35.816 40.5602 35.8386C40.3677 35.8612 40.1747 35.8794 39.9813 35.893C39.7878 35.9067 39.5942 35.9159 39.4002 35.9205ZM38.4806 17.0238C38.3478 17.0334 38.2153 17.046 38.0832 17.0617C37.951 17.0773 37.8193 17.0961 37.688 17.1179C37.5568 17.1398 37.4263 17.1647 37.2964 17.1926C37.1665 17.2206 37.0374 17.2515 36.9091 17.2854C36.7808 17.3193 36.6535 17.3563 36.5271 17.3962C36.4007 17.436 36.2754 17.4788 36.1513 17.5245C36.0271 17.5702 35.9043 17.6187 35.7827 17.6702C35.661 17.7217 35.5408 17.7759 35.4219 17.833C35.3032 17.8899 35.1859 17.9497 35.0702 18.0122C34.9545 18.0747 34.8405 18.1399 34.7281 18.2077C34.6159 18.2756 34.5054 18.3459 34.3967 18.4189C34.288 18.4919 34.1812 18.5673 34.0765 18.6453C33.9718 18.7232 33.8691 18.8035 33.7685 18.8862C33.668 18.969 33.5696 19.054 33.4735 19.1413C33.3773 19.2286 33.2835 19.3181 33.192 19.4097C33.1005 19.5014 33.0114 19.5952 32.9248 19.6911C32.8381 19.7869 32.754 19.8847 32.6724 19.9845C32.5909 20.0842 32.5121 20.1858 32.4358 20.2892C32.3595 20.3926 32.2859 20.4978 32.2151 20.6046C32.1443 20.7115 32.0763 20.8199 32.0111 20.9299C31.9459 21.0399 31.8837 21.1514 31.8242 21.2644C31.7648 21.3773 31.7084 21.4915 31.655 21.6071C31.6015 21.7227 31.5511 21.8394 31.5036 21.9573C31.4563 22.0752 31.412 22.1941 31.3708 22.3141C31.3296 22.434 31.2916 22.5549 31.2566 22.6767C31.2217 22.7985 31.19 22.921 31.1614 23.0442C31.1328 23.1674 31.1074 23.2912 31.0852 23.4156C31.0631 23.54 31.0442 23.6648 31.0286 23.7902C31.0129 23.9154 31.0005 24.041 30.9914 24.1669C30.9823 24.2928 30.9764 24.4187 30.9739 24.5448C30.9713 24.671 30.9719 24.7972 30.9759 24.9233C30.98 25.0494 30.9872 25.1753 30.9977 25.3011C31.0082 25.4268 31.0219 25.5522 31.039 25.6774C31.0561 25.8025 31.0764 25.9272 31.0998 26.0514C31.1233 26.1755 31.15 26.2991 31.18 26.422C31.2099 26.545 31.243 26.6671 31.2792 26.7885C31.3155 26.9099 31.3549 27.0304 31.3975 27.15C31.44 27.2695 31.4855 27.388 31.5342 27.5054C31.583 27.6228 31.6347 27.7391 31.6894 27.8541C31.7441 27.9691 31.8018 28.0828 31.8625 28.195C31.9231 28.3074 31.9866 28.4183 32.053 28.5276C32.1194 28.637 32.1885 28.7448 32.2606 28.851C32.3325 28.9571 32.4072 29.0615 32.4846 29.1642C32.562 29.2669 32.642 29.3677 32.7246 29.4666C32.8073 29.5655 32.8925 29.6624 32.9802 29.7574C33.0679 29.8524 33.158 29.9453 33.2504 30.036C33.343 30.1268 33.4378 30.2154 33.535 30.3018C33.6321 30.3881 33.7313 30.4722 33.8327 30.5538C33.9342 30.6356 34.0378 30.7149 34.1435 30.7917C34.249 30.8687 34.3565 30.9431 34.466 31.015C34.5755 31.0868 34.6868 31.1561 34.7999 31.2229C34.9128 31.2895 35.0275 31.3535 35.144 31.4149C35.2603 31.4763 35.3782 31.5349 35.4977 31.5908C35.6172 31.6467 35.738 31.6997 35.8601 31.7499C35.9823 31.8001 36.1057 31.8475 36.2304 31.892C36.3551 31.9365 36.4808 31.978 36.6076 32.0167C36.7344 32.0552 36.8621 32.0909 36.9907 32.1236C37.1194 32.1563 37.2489 32.186 37.379 32.2126C37.5092 32.2392 37.6401 32.2628 37.7714 32.2833C37.9029 32.3039 38.0348 32.3213 38.1672 32.3356C38.2995 32.3501 38.432 32.3614 38.5649 32.3697C38.6979 32.3778 38.831 32.3829 38.9642 32.385C39.0974 32.387 39.2305 32.3859 39.3636 32.3816C39.4967 32.3775 39.6297 32.3702 39.7624 32.3598C39.8946 32.3495 40.0264 32.3361 40.1579 32.3195C40.2894 32.3031 40.4204 32.2836 40.5509 32.2611C40.6814 32.2386 40.8112 32.213 40.9403 32.1845C41.0694 32.1559 41.1977 32.1244 41.3252 32.0899C41.4528 32.0554 41.5794 32.0179 41.705 31.9775C41.8306 31.9371 41.955 31.8938 42.0783 31.8476C42.2017 31.8016 42.3237 31.7526 42.4445 31.7007C42.5653 31.6489 42.6847 31.5943 42.8028 31.537C42.9207 31.4796 43.0372 31.4195 43.1521 31.3567C43.267 31.294 43.3802 31.2286 43.4916 31.1606C43.6031 31.0925 43.7128 31.0219 43.8206 30.9488C43.9285 30.8758 44.0344 30.8002 44.1383 30.7221C44.2423 30.6441 44.3441 30.5637 44.4439 30.481C44.5436 30.3982 44.6412 30.3132 44.7366 30.226C44.832 30.1387 44.9251 30.0492 45.0158 29.9576C45.1066 29.866 45.1949 29.7724 45.2808 29.6767C45.3667 29.581 45.4501 29.4835 45.531 29.3839C45.6119 29.2843 45.6901 29.1829 45.7657 29.0797C45.8414 28.9765 45.9143 28.8716 45.9845 28.765C46.0547 28.6584 46.1221 28.5503 46.1867 28.4406C46.2512 28.331 46.3129 28.2198 46.3718 28.1072C46.4307 27.9946 46.4865 27.8808 46.5395 27.7656C46.5925 27.6505 46.6425 27.5342 46.6894 27.4167C46.7363 27.2992 46.7802 27.1807 46.8211 27.0612C46.8619 26.9416 46.8996 26.8212 46.9341 26.7C46.9688 26.5787 47.0002 26.4567 47.0284 26.334C47.0567 26.2113 47.0818 26.088 47.1037 25.9641C47.1256 25.8403 47.1443 25.7159 47.1598 25.5912C47.1752 25.4664 47.1874 25.3413 47.1965 25.216C47.2055 25.0907 47.2112 24.9652 47.2137 24.8397C47.2162 24.7141 47.2155 24.5885 47.2115 24.4629C47.2076 24.3374 47.2003 24.212 47.1899 24.0868C47.1794 23.9615 47.1657 23.8366 47.1487 23.7121C47.1318 23.5875 47.1117 23.4634 47.0883 23.3398C47.065 23.2161 47.0384 23.0931 47.0088 22.9707C46.9791 22.8483 46.9462 22.7266 46.9102 22.6057C46.8742 22.4847 46.8351 22.3647 46.793 22.2457C46.7507 22.1266 46.7054 22.0085 46.6572 21.8916C46.6088 21.7746 46.5575 21.6588 46.5032 21.5443C46.4489 21.4297 46.3916 21.3164 46.3315 21.2045C46.2713 21.0925 46.2083 20.982 46.1423 20.8731C46.0765 20.764 46.0079 20.6565 45.9364 20.5507C45.865 20.4449 45.7909 20.3408 45.7141 20.2385C45.6373 20.136 45.5578 20.0355 45.4757 19.9368C45.3937 19.8381 45.3092 19.7413 45.2223 19.6465C45.1352 19.5517 45.0457 19.4591 44.9539 19.3684C44.8622 19.2777 44.7681 19.1892 44.6717 19.103C44.5752 19.0168 44.4767 18.9328 44.376 18.851C44.2752 18.7694 44.1724 18.6901 44.0675 18.6131C43.9627 18.5362 43.8559 18.4617 43.7472 18.3898C43.6386 18.3178 43.5281 18.2484 43.4157 18.1816C43.3035 18.1147 43.1895 18.0505 43.0739 17.989C42.9583 17.9274 42.8412 17.8685 42.7226 17.8124C42.604 17.7563 42.4839 17.7029 42.3625 17.6524C42.2411 17.6019 42.1185 17.5542 41.9946 17.5092C41.8707 17.4644 41.7457 17.4225 41.6198 17.3834C41.4937 17.3443 41.3667 17.3082 41.2388 17.2751C41.1109 17.2419 40.9822 17.2117 40.8528 17.1845C40.7232 17.1573 40.5931 17.1331 40.4623 17.1119C40.3317 17.0908 40.2005 17.0726 40.0688 17.0575C39.9372 17.0424 39.8052 17.0304 39.6729 17.0215C39.5406 17.0125 39.4082 17.0066 39.2756 17.0037C39.143 17.001 39.0105 17.0013 38.8779 17.0046C38.7453 17.0079 38.6129 17.0143 38.4806 17.0238Z" fill="#9148D4"/>
<path d="M14.2221 35.8895C14.0287 35.904 13.8351 35.9139 13.6413 35.9194C13.4475 35.9249 13.2536 35.9258 13.0598 35.9222C12.8658 35.9186 12.6721 35.9106 12.4786 35.8981C12.2852 35.8855 12.0921 35.8685 11.8995 35.8469C11.7069 35.8254 11.515 35.7994 11.3238 35.769C11.1325 35.7385 10.9422 35.7036 10.7527 35.6643C10.5633 35.625 10.375 35.5814 10.1878 35.5333C10.0007 35.4852 9.81484 35.4328 9.63038 35.3762C9.44592 35.3195 9.26304 35.2586 9.08174 35.1934C8.90043 35.1282 8.72092 35.0588 8.54322 34.9852C8.3655 34.9117 8.1898 34.8341 8.01612 34.7523C7.84243 34.6707 7.67097 34.585 7.50172 34.4954C7.33247 34.4056 7.16565 34.312 7.00125 34.2146C6.83686 34.1172 6.67508 34.016 6.51593 33.911C6.35677 33.8061 6.20043 33.6975 6.04689 33.5854C5.89337 33.4731 5.74284 33.3574 5.59531 33.2382C5.44778 33.119 5.30342 32.9964 5.16224 32.8705C5.02106 32.7446 4.88323 32.6154 4.74874 32.4831C4.61425 32.3507 4.48326 32.2153 4.3558 32.0769C4.22832 31.9385 4.1045 31.7972 3.98435 31.653C3.86421 31.5089 3.74786 31.362 3.63532 31.2123C3.52278 31.0628 3.41418 30.9107 3.30953 30.7561C3.20487 30.6014 3.10428 30.4445 3.00775 30.2852C2.91123 30.1259 2.81889 29.9644 2.73073 29.8008C2.64257 29.6372 2.5587 29.4716 2.47912 29.3042C2.39954 29.1367 2.32435 28.9674 2.25354 28.7964C2.18273 28.6254 2.11639 28.4529 2.05452 28.2788C1.99266 28.1047 1.93534 27.9293 1.88255 27.7526C1.82978 27.5758 1.78161 27.398 1.73805 27.219C1.69449 27.04 1.6556 26.8601 1.62135 26.6793C1.58712 26.4985 1.55758 26.317 1.53274 26.1349C1.5079 25.9527 1.4878 25.77 1.47243 25.587C1.45706 25.4039 1.44644 25.2206 1.44057 25.037C1.43469 24.8533 1.43357 24.6697 1.43722 24.4861C1.44086 24.3024 1.44926 24.119 1.46241 23.9357C1.47555 23.7525 1.49344 23.5697 1.51607 23.3873C1.5387 23.2048 1.56603 23.023 1.59806 22.8419C1.63011 22.6607 1.66683 22.4804 1.70822 22.3009C1.7496 22.1215 1.79561 21.9432 1.84625 21.7659C1.89688 21.5886 1.95206 21.4126 2.01182 21.2378C2.07157 21.0631 2.13581 20.8898 2.20454 20.718C2.27327 20.5463 2.34641 20.3762 2.42395 20.2078C2.50149 20.0395 2.58334 19.8731 2.66951 19.7086C2.75567 19.544 2.84605 19.3815 2.94064 19.2211C3.03522 19.0608 3.13389 18.9027 3.23667 18.747C3.33945 18.5912 3.4462 18.438 3.55692 18.2871C3.66763 18.1364 3.78219 17.9882 3.90058 17.8427C4.01897 17.6972 4.14106 17.5546 4.26685 17.4149C4.39264 17.2751 4.52197 17.1383 4.65484 17.0045C4.78772 16.8707 4.92398 16.74 5.06362 16.6126C5.20327 16.4851 5.34613 16.361 5.49221 16.2401C5.63828 16.1193 5.78739 16.002 5.93954 15.8882C6.09171 15.7743 6.24672 15.664 6.40459 15.5573C6.56246 15.4506 6.723 15.3477 6.88621 15.2485C7.04941 15.1492 7.21508 15.0539 7.38323 14.9624C7.55139 14.8709 7.7218 14.7833 7.89448 14.6997C8.06717 14.6162 8.24192 14.5366 8.41872 14.4612C8.59552 14.3857 8.77417 14.3144 8.95468 14.2472C9.13518 14.1801 9.31731 14.1171 9.50107 14.0585C9.68484 13.9998 9.87001 13.9454 10.0566 13.8952C10.2432 13.8451 10.4309 13.7994 10.6199 13.7581C10.8088 13.7168 10.9987 13.6798 11.1896 13.6473C11.3805 13.6147 11.572 13.5866 11.7644 13.563C11.9567 13.5394 12.1495 13.5202 12.3428 13.5056C12.5363 13.4909 12.73 13.4808 12.9239 13.4751C13.118 13.4694 13.312 13.4683 13.506 13.4716C13.7001 13.475 13.8939 13.4829 14.0874 13.4953C14.2811 13.5077 14.4743 13.5245 14.6671 13.5459C14.8599 13.5672 15.0519 13.593 15.2433 13.6233C15.4347 13.6536 15.6252 13.6884 15.8148 13.7275C16.0045 13.7666 16.193 13.8102 16.3804 13.8582C16.5677 13.9061 16.7537 13.9584 16.9383 14.015C17.123 14.0716 17.306 14.1324 17.4875 14.1975C17.6691 14.2625 17.8488 14.3318 18.0267 14.4053C18.2046 14.4788 18.3804 14.5563 18.5543 14.638C18.7282 14.7197 18.8999 14.8053 19.0692 14.8948C19.2387 14.9845 19.4057 15.078 19.5703 15.1754C19.7349 15.2728 19.8968 15.3739 20.0561 15.4789C20.2156 15.5838 20.3721 15.6924 20.5258 15.8047C20.6795 15.9168 20.8301 16.0325 20.9778 16.1518C21.1256 16.271 21.2701 16.3935 21.4114 16.5194C21.5528 16.6454 21.6909 16.7746 21.8255 16.907C21.9601 17.0393 22.0913 17.1747 22.219 17.3131C22.3466 17.4517 22.4706 17.593 22.5908 17.7372C22.7111 17.8815 22.8276 18.0285 22.9403 18.1781C23.053 18.3277 23.1617 18.4799 23.2666 18.6347C23.3713 18.7893 23.472 18.9464 23.5687 19.1058C23.6653 19.2651 23.7577 19.4267 23.846 19.5904C23.9343 19.7541 24.0183 19.9198 24.098 20.0873C24.1776 20.255 24.2529 20.4243 24.3238 20.5954C24.3948 20.7665 24.4612 20.9392 24.5232 21.1134C24.5851 21.2876 24.6424 21.4631 24.6953 21.64C24.7481 21.8168 24.7964 21.9948 24.8401 22.1739C24.8837 22.353 24.9226 22.533 24.9568 22.714C24.9911 22.8949 25.0206 23.0765 25.0455 23.2588C25.0704 23.4411 25.0906 23.6239 25.1059 23.8071C25.1213 23.9903 25.1319 24.1738 25.1378 24.3576C25.1437 24.5413 25.1448 24.725 25.1412 24.9088C25.1375 25.0926 25.1291 25.2762 25.1159 25.4595C25.1027 25.643 25.0848 25.8259 25.0621 26.0084C25.0394 26.191 25.0119 26.3729 24.9798 26.5542C24.9478 26.7355 24.911 26.9159 24.8695 27.0955C24.8281 27.275 24.782 27.4535 24.7313 27.6309C24.6807 27.8083 24.6253 27.9845 24.5654 28.1593C24.5056 28.3342 24.4413 28.5076 24.3725 28.6794C24.3036 28.8513 24.2304 29.0214 24.1528 29.1899C24.0751 29.3583 23.9931 29.5249 23.9068 29.6896C23.8205 29.8542 23.73 30.0167 23.6353 30.1771C23.5405 30.3376 23.4417 30.4957 23.3388 30.6514C23.2358 30.8073 23.1289 30.9607 23.018 31.1116C22.9072 31.2624 22.7925 31.4106 22.6739 31.5562C22.5553 31.7016 22.4331 31.8443 22.3071 31.9841C22.1811 32.1239 22.0516 32.2607 21.9185 32.3945C21.7855 32.5283 21.6491 32.659 21.5092 32.7864C21.3694 32.9139 21.2264 33.038 21.0801 33.1589C20.9338 33.2797 20.7845 33.397 20.6322 33.5109C20.4798 33.6247 20.3246 33.735 20.1665 33.8417C20.0085 33.9483 19.8477 34.0511 19.6844 34.1503C19.5209 34.2495 19.355 34.3448 19.1867 34.4363C19.0183 34.5277 18.8477 34.6152 18.6748 34.6987C18.502 34.7822 18.327 34.8616 18.15 34.9371C17.973 35.0124 17.7941 35.0836 17.6134 35.1506C17.4328 35.2177 17.2504 35.2805 17.0665 35.3391C16.8825 35.3977 16.6971 35.4519 16.5104 35.5019C16.3237 35.5518 16.1357 35.5974 15.9465 35.6385C15.7574 35.6798 15.5673 35.7166 15.3763 35.7489C15.1853 35.7813 14.9935 35.8092 14.801 35.8327C14.6085 35.8561 14.4155 35.8751 14.2221 35.8895ZM12.6892 17.0187C12.5568 17.0281 12.4248 17.0404 12.2931 17.0558C12.1614 17.0713 12.0302 17.0898 11.8994 17.1114C11.7687 17.133 11.6386 17.1575 11.5091 17.1851C11.3796 17.2127 11.2509 17.2432 11.123 17.2768C10.9951 17.3104 10.8682 17.3469 10.7422 17.3863C10.6162 17.4258 10.4912 17.4681 10.3674 17.5135C10.2436 17.5587 10.121 17.6068 9.99971 17.6578C9.87839 17.7087 9.75846 17.7625 9.63992 17.8189C9.52137 17.8755 9.40435 17.9348 9.28887 17.9967C9.1734 18.0586 9.0596 18.1231 8.94746 18.1904C8.83532 18.2576 8.72499 18.3275 8.61647 18.3999C8.50795 18.4722 8.40136 18.547 8.29671 18.6243C8.19207 18.7016 8.08949 18.7813 7.98897 18.8634C7.88844 18.9454 7.7901 19.0298 7.69394 19.1165C7.59779 19.2032 7.50393 19.2919 7.41236 19.3829C7.32081 19.4739 7.23166 19.5669 7.14491 19.6621C7.05817 19.7572 6.97394 19.8543 6.89223 19.9534C6.81051 20.0525 6.7314 20.1533 6.6549 20.256C6.57841 20.3587 6.50462 20.4632 6.43353 20.5694C6.36244 20.6755 6.29414 20.7832 6.22863 20.8925C6.16311 21.0018 6.10047 21.1127 6.04069 21.2249C5.98091 21.3371 5.92407 21.4506 5.87017 21.5654C5.81626 21.6803 5.76536 21.7964 5.71747 21.9136C5.66958 22.0309 5.62475 22.1492 5.58297 22.2684C5.5412 22.3877 5.50253 22.5079 5.46698 22.629C5.43144 22.7501 5.39904 22.872 5.3698 22.9947C5.34056 23.1172 5.3145 23.2404 5.29162 23.3643C5.26876 23.4881 5.24911 23.6124 5.23268 23.737C5.21625 23.8618 5.20305 23.9869 5.19309 24.1122C5.18313 24.2375 5.17642 24.3631 5.17296 24.4888C5.16949 24.6144 5.16928 24.7401 5.17232 24.8657C5.17536 24.9914 5.18165 25.1169 5.19119 25.2423C5.20072 25.3676 5.2135 25.4927 5.22952 25.6176C5.24552 25.7423 5.26475 25.8667 5.2872 25.9906C5.30965 26.1145 5.33529 26.2377 5.36413 26.3604C5.39296 26.4831 5.42494 26.6051 5.46008 26.7263C5.49522 26.8475 5.53348 26.9678 5.57484 27.0873C5.61622 27.2067 5.66066 27.325 5.70816 27.4424C5.75566 27.5598 5.80616 27.676 5.85967 27.791C5.91318 27.906 5.96964 28.0198 6.02905 28.1322C6.08845 28.2446 6.15072 28.3555 6.21585 28.4651C6.281 28.5746 6.34894 28.6825 6.41968 28.7889C6.4904 28.8953 6.56384 28.9999 6.63999 29.1028C6.71614 29.2058 6.79491 29.3069 6.87629 29.4063C6.95767 29.5056 7.04158 29.6029 7.128 29.6983C7.21442 29.7936 7.30325 29.8869 7.3945 29.9782C7.48576 30.0695 7.57931 30.1586 7.67517 30.2456C7.77104 30.3325 7.8691 30.4172 7.96933 30.4995C8.06958 30.5819 8.1719 30.6618 8.27629 30.7395C8.38068 30.8171 8.48701 30.8923 8.59528 30.965C8.70356 31.0377 8.81365 31.1078 8.92555 31.1753C9.03747 31.243 9.15106 31.3079 9.26633 31.3703C9.38159 31.4325 9.4984 31.4921 9.61677 31.549C9.73512 31.6059 9.85486 31.6599 9.97601 31.7112C10.0972 31.7626 10.2196 31.811 10.3432 31.8566C10.4669 31.9023 10.5917 31.9451 10.7175 31.9849C10.8434 32.0247 10.9702 32.0616 11.098 32.0955C11.2258 32.1295 11.3544 32.1605 11.4838 32.1884C11.6132 32.2164 11.7432 32.2414 11.8739 32.2633C12.0046 32.2852 12.1357 32.3041 12.2674 32.32C12.399 32.3359 12.531 32.3487 12.6634 32.3584C12.7957 32.3681 12.9281 32.3747 13.0608 32.3783C13.1935 32.3819 13.3262 32.3824 13.4589 32.3798C13.5916 32.3772 13.7241 32.3716 13.8565 32.3628C13.9893 32.354 14.1217 32.3422 14.2539 32.3273C14.3861 32.3123 14.5178 32.2942 14.6491 32.2732C14.7802 32.2521 14.9108 32.228 15.0409 32.2009C15.1708 32.1737 15.3 32.1436 15.4284 32.1104C15.5568 32.0772 15.6843 32.0411 15.8109 32.002C15.9374 31.9628 16.0628 31.9208 16.1871 31.8759C16.3115 31.8309 16.4346 31.7831 16.5565 31.7324C16.6785 31.6817 16.7989 31.6282 16.918 31.572C17.0371 31.5157 17.1546 31.4566 17.2706 31.3948C17.3868 31.333 17.5012 31.2686 17.6138 31.2015C17.7265 31.1344 17.8374 31.0647 17.9465 30.9925C18.0555 30.9202 18.1626 30.8455 18.2679 30.7682C18.373 30.691 18.4761 30.6113 18.5772 30.5293C18.6783 30.4472 18.7772 30.3628 18.8738 30.2762C18.9705 30.1896 19.0649 30.1007 19.1569 30.0097C19.2489 29.9186 19.3386 29.8255 19.4259 29.7303C19.5131 29.6351 19.5979 29.5379 19.68 29.4387C19.7622 29.3395 19.8418 29.2385 19.9187 29.1357C19.9956 29.0327 20.0698 28.9281 20.1413 28.8218C20.2128 28.7154 20.2816 28.6075 20.3475 28.498C20.4133 28.3885 20.4763 28.2774 20.5366 28.165C20.5967 28.0525 20.6539 27.9387 20.708 27.8236C20.7623 27.7084 20.8135 27.5921 20.8618 27.4745C20.9099 27.3571 20.955 27.2385 20.9971 27.1189C21.0391 26.9993 21.078 26.8788 21.1138 26.7574C21.1495 26.6359 21.1822 26.5137 21.2116 26.3908C21.2411 26.2678 21.2673 26.1443 21.2904 26.0201C21.3134 25.8959 21.3332 25.7713 21.3498 25.6462C21.3664 25.5212 21.3796 25.3958 21.3896 25.2701C21.3996 25.1443 21.4064 25.0185 21.41 24.8925C21.4135 24.7664 21.4138 24.6404 21.4107 24.5143C21.4077 24.3883 21.4014 24.2624 21.3918 24.1367C21.3822 24.0109 21.3694 23.8855 21.3534 23.7604C21.3372 23.6352 21.3179 23.5105 21.2954 23.3862C21.2729 23.262 21.2471 23.1384 21.2182 23.0152C21.1891 22.8922 21.1569 22.77 21.1217 22.6485C21.0863 22.5269 21.0479 22.4062 21.0063 22.2864C20.9648 22.1667 20.9201 22.048 20.8723 21.9303C20.8246 21.8126 20.7738 21.6961 20.7199 21.5809C20.6662 21.4655 20.6094 21.3516 20.5497 21.2389C20.4901 21.1262 20.4275 21.0149 20.3619 20.9052C20.2965 20.7954 20.2282 20.6873 20.1571 20.5807C20.086 20.4741 20.0122 20.3692 19.9357 20.2661C19.8591 20.163 19.7799 20.0617 19.6981 19.9623C19.6163 19.8628 19.5319 19.7653 19.4451 19.6698C19.3582 19.5743 19.2689 19.4808 19.1772 19.3895C19.0855 19.2981 18.9915 19.2089 18.8951 19.122C18.7988 19.035 18.7002 18.9503 18.5994 18.8679C18.4987 18.7854 18.396 18.7055 18.2911 18.6279C18.1862 18.5503 18.0793 18.4752 17.9705 18.4026C17.8617 18.3298 17.7511 18.2598 17.6387 18.1923C17.5262 18.1248 17.4121 18.06 17.2963 17.9979C17.1805 17.9357 17.0632 17.8763 16.9444 17.8195C16.8254 17.7629 16.7051 17.709 16.5835 17.6578C16.4618 17.6067 16.3389 17.5585 16.2147 17.5131C16.0906 17.4677 15.9652 17.4252 15.8387 17.3857C15.7124 17.3462 15.5851 17.3096 15.4568 17.276C15.3285 17.2424 15.1995 17.2117 15.0696 17.1841C14.9397 17.1565 14.8091 17.132 14.678 17.1104C14.5469 17.089 14.4153 17.0706 14.2831 17.0552C14.151 17.0397 14.0186 17.0274 13.8858 17.0183C13.7531 17.009 13.6202 17.0029 13.4872 16.9998C13.3541 16.9967 13.221 16.9968 13.0879 17C12.9549 17.0031 12.822 17.0094 12.6892 17.0187Z" fill="#9148D4"/>
<path d="M23.6681 17.8126C22.7712 16.3126 21.5669 15.097 20.1061 14.0786C17.4621 12.2359 13.8505 11.6246 10.6499 12.0954C7.78477 12.5169 5.0294 14.0729 3.18087 16.179C2.83819 16.5695 2.56428 17.0217 2.24528 17.4305C2.12256 17.5878 1.95748 17.7888 1.74517 17.8176C1.65087 17.7501 1.57749 17.6791 1.51003 17.5876C0.848669 16.691 -0.204567 13.2293 0.0354503 12.1531C0.0526978 12.0758 0.100679 11.9174 0.196854 11.8916C0.596881 11.784 1.4155 12.2345 1.83373 11.9676C1.97173 11.632 1.36179 11.1171 1.16894 10.8551C1.00551 10.6314 0.863574 10.3961 0.743121 10.1492C0.457266 9.55454 0.251151 8.79404 0.245849 8.13855C0.24444 7.96432 0.272382 7.8237 0.403221 7.69639C0.49074 7.67257 0.601285 7.65036 0.687937 7.69495C0.853562 7.78014 1.04662 7.99435 1.20059 8.11646C1.59146 8.42646 2.38664 8.93109 2.91659 8.95437C3.03041 8.95935 3.06615 8.92967 3.14696 8.85975C3.2101 8.58445 2.98969 8.27151 2.86852 8.02269C2.30231 6.86003 2.01191 5.92017 1.99914 4.6364C1.99449 4.16759 1.98927 3.69114 2.0404 3.22423C2.11883 2.5078 2.5342 0.487331 3.03793 0.00207726C3.1394 0.00568051 3.25695 0.00442074 3.34654 0.0550054C3.41495 0.0936436 3.4755 0.153146 3.51703 0.217195C3.73405 0.551983 3.89984 0.935212 4.09183 1.28488C4.46158 1.95832 4.86658 2.63367 5.30405 3.27026C6.24157 4.6345 7.38074 5.93904 8.74458 6.94002C10.444 8.18727 12.4787 9.03305 14.5162 9.65005C15.7982 10.0383 17.1048 10.3666 18.3534 10.8462C18.8812 11.0513 19.3969 11.2807 19.9005 11.5344C20.4042 11.7882 20.8934 12.065 21.3679 12.3648C22.7386 13.2157 23.8874 14.3121 24.9681 15.4704C25.3919 15.9246 25.7503 16.4277 26.229 16.8332C26.5916 16.4812 26.8633 16.0595 27.195 15.6821C28.1002 14.6522 29.0319 13.7083 30.1568 12.889C30.6579 12.5188 31.1817 12.1801 31.7282 11.8729C32.2748 11.5657 32.8396 11.2925 33.4228 11.0532C34.8051 10.4922 36.2629 10.1376 37.6934 9.70796C39.7115 9.10186 41.834 8.19303 43.503 6.94144C43.7028 6.79133 43.8989 6.63689 44.0912 6.47812C44.2834 6.31936 44.4716 6.15645 44.6559 5.98939C44.8402 5.82233 45.0203 5.6513 45.1961 5.47631C45.372 5.30131 45.5434 5.12253 45.7104 4.93998C45.8776 4.75742 46.0401 4.57128 46.1979 4.38156C46.3559 4.19184 46.5091 3.99874 46.6575 3.80227C46.8059 3.6058 46.9494 3.40616 47.088 3.20336C47.2267 3.00056 47.3603 2.79482 47.4888 2.58613C47.8013 2.07004 48.6907 0.248525 49.1383 0.0329525C49.1982 0.00413533 49.2442 -0.000887711 49.3079 0.0247934C49.5347 0.116062 49.6568 0.482714 49.7258 0.685886C50.3208 2.43642 50.7238 4.5215 50.2166 6.33936C50.0048 7.09861 49.6595 7.79244 49.2871 8.48776C49.2227 8.60802 49.2068 8.70556 49.2513 8.8351C49.2874 8.86463 49.3167 8.90134 49.3642 8.91072C49.7551 8.98782 50.6934 8.474 50.9997 8.24494C51.212 8.08618 51.3804 7.83605 51.6135 7.71019C51.7389 7.6425 51.8244 7.64879 51.9543 7.68106C52.0452 7.76421 52.0811 7.83028 52.1022 7.94954C52.264 8.86056 51.8017 10.0355 51.2767 10.7822C51.0864 11.0529 50.8343 11.2878 50.6519 11.5602C50.5756 11.6743 50.5602 11.7624 50.5902 11.8894C50.9066 12.2772 51.6503 11.8081 52.0867 11.8924C52.1783 11.9101 52.2544 11.958 52.304 12.0318C52.6651 12.5686 52.0294 14.7766 51.8898 15.3653C51.7061 16.0175 51.3125 16.9216 50.9323 17.4933C50.8265 17.6522 50.7334 17.7764 50.5332 17.8208C50.3241 17.7202 49.1326 16.1088 48.8027 15.7653C48.7353 15.6947 48.6671 15.6249 48.598 15.5559C48.5289 15.4868 48.4589 15.4186 48.388 15.3513C48.3171 15.2839 48.2453 15.2173 48.1726 15.1516C48.1 15.0859 48.0266 15.0211 47.9523 14.9571C47.8779 14.8932 47.8028 14.8301 47.7269 14.7678C47.6509 14.7055 47.5741 14.6441 47.4966 14.5837C47.419 14.5233 47.3407 14.4638 47.2616 14.4051C47.1825 14.3465 47.1026 14.2889 47.022 14.2321C46.9415 14.1753 46.8601 14.1194 46.7781 14.0646C46.696 14.0098 46.6132 13.9559 46.5298 13.9029C46.4464 13.8499 46.3623 13.798 46.2774 13.747C46.1926 13.696 46.1071 13.6461 46.0211 13.5971C45.9349 13.5482 45.8482 13.5002 45.761 13.4531C45.6736 13.4062 45.5856 13.3603 45.4972 13.3153C45.4086 13.2704 45.3194 13.2266 45.2297 13.1838C45.1401 13.141 45.0499 13.0992 44.959 13.0584C44.8683 13.0177 44.777 12.9781 44.6852 12.9395C44.5934 12.9008 44.5012 12.8633 44.4084 12.8268C44.3156 12.7905 44.2223 12.7551 44.1286 12.7208C44.035 12.6865 43.9408 12.6534 43.8463 12.6212C43.7518 12.5892 43.6568 12.5582 43.5614 12.5283C43.466 12.4985 43.3703 12.4698 43.2742 12.4422C43.178 12.4145 43.0816 12.3879 42.9849 12.3625C42.8881 12.3373 42.791 12.313 42.6935 12.2898C42.5961 12.2668 42.4984 12.2448 42.4003 12.2239C42.3024 12.203 42.2041 12.1834 42.1056 12.1649C42.0071 12.1463 41.9084 12.1289 41.8093 12.1127C41.7104 12.0964 41.6112 12.0813 41.5119 12.0674C41.4125 12.0534 41.313 12.0407 41.2133 12.029C41.1137 12.0174 41.0138 12.007 40.9139 11.9977C40.8139 11.9884 40.7138 11.9803 40.6137 11.9733C40.5135 11.9664 40.4133 11.9606 40.313 11.956C36.4446 11.7822 32.9124 13.0476 30.2733 15.7578C29.9929 16.0458 29.7308 16.3615 29.4925 16.6813C29.2586 16.995 29.02 17.5226 28.7129 17.7486C28.5982 17.833 28.2154 17.8271 28.0698 17.8307C27.4127 17.8472 26.7538 17.7635 26.0959 17.767C25.2851 17.7714 24.4794 17.8602 23.6681 17.8126Z" fill="#9148D4"/>
<path d="M26.9664 14.2456C26.7755 14.4986 26.5284 14.8671 26.1863 14.9349C26.0313 14.8851 25.9155 14.7854 25.8014 14.6772C25.4742 14.3673 25.2071 13.994 24.8982 13.6669C24.1009 12.8223 23.2502 12.0156 22.3135 11.3086C21.2336 10.4933 20.092 9.8575 18.8523 9.29062C18.4457 9.10466 17.8529 8.9948 17.5071 8.74478C17.4088 8.67377 17.3366 8.5757 17.3274 8.45628C17.3186 8.34055 17.3849 8.23305 17.4668 8.15223C18.1317 7.49653 21.2816 6.8659 22.3292 6.72688C23.1587 6.61683 24.023 6.57118 24.8592 6.52756C27.7897 6.38321 30.9277 6.63821 33.6918 7.60315C34.0551 7.73001 34.5038 7.83675 34.8163 8.05729C34.9331 8.13957 35.0402 8.24036 35.0558 8.38426C35.1024 8.81728 34.4016 8.92396 34.0846 9.0452C31.2696 10.1215 28.8831 12.048 26.9664 14.2456Z" fill="#9148D4"/>
</svg>
